G04*
G04 #@! TF.GenerationSoftware,Altium Limited,Altium Designer,22.9.1 (49)*
G04*
G04 Layer_Color=8388736*
%FSLAX44Y44*%
%MOMM*%
G71*
G04*
G04 #@! TF.SameCoordinates,A8B0115D-A14B-43F8-95CD-E385AC25DAC2*
G04*
G04*
G04 #@! TF.FilePolarity,Negative*
G04*
G01*
G75*
%ADD15R,0.8032X1.1532*%
%ADD16R,0.8032X1.2032*%
G04:AMPARAMS|DCode=17|XSize=0.9232mm|YSize=1.0332mm|CornerRadius=0.2816mm|HoleSize=0mm|Usage=FLASHONLY|Rotation=90.000|XOffset=0mm|YOffset=0mm|HoleType=Round|Shape=RoundedRectangle|*
%AMROUNDEDRECTD17*
21,1,0.9232,0.4700,0,0,90.0*
21,1,0.3600,1.0332,0,0,90.0*
1,1,0.5632,0.2350,0.1800*
1,1,0.5632,0.2350,-0.1800*
1,1,0.5632,-0.2350,-0.1800*
1,1,0.5632,-0.2350,0.1800*
%
%ADD17ROUNDEDRECTD17*%
G04:AMPARAMS|DCode=18|XSize=0.7832mm|YSize=0.7832mm|CornerRadius=0.2524mm|HoleSize=0mm|Usage=FLASHONLY|Rotation=270.000|XOffset=0mm|YOffset=0mm|HoleType=Round|Shape=RoundedRectangle|*
%AMROUNDEDRECTD18*
21,1,0.7832,0.2784,0,0,270.0*
21,1,0.2784,0.7832,0,0,270.0*
1,1,0.5048,-0.1392,-0.1392*
1,1,0.5048,-0.1392,0.1392*
1,1,0.5048,0.1392,0.1392*
1,1,0.5048,0.1392,-0.1392*
%
%ADD18ROUNDEDRECTD18*%
%ADD19C,1.3500*%
%ADD20C,1.8644*%
%ADD21R,1.8644X1.8644*%
%ADD22C,4.2672*%
G04:AMPARAMS|DCode=23|XSize=1.7032mm|YSize=1.7032mm|CornerRadius=0.2516mm|HoleSize=0mm|Usage=FLASHONLY|Rotation=180.000|XOffset=0mm|YOffset=0mm|HoleType=Round|Shape=RoundedRectangle|*
%AMROUNDEDRECTD23*
21,1,1.7032,1.2000,0,0,180.0*
21,1,1.2000,1.7032,0,0,180.0*
1,1,0.5032,-0.6000,0.6000*
1,1,0.5032,0.6000,0.6000*
1,1,0.5032,0.6000,-0.6000*
1,1,0.5032,-0.6000,-0.6000*
%
%ADD23ROUNDEDRECTD23*%
%ADD24C,1.7032*%
D15*
X158140Y71120D02*
D03*
X167640D02*
D03*
X177140D02*
D03*
Y98620D02*
D03*
X158140D02*
D03*
D16*
X108610Y97320D02*
D03*
X127610D02*
D03*
Y70320D02*
D03*
X118110D02*
D03*
X108610D02*
D03*
D17*
X92710Y97220D02*
D03*
Y83120D02*
D03*
D18*
X143510Y68270D02*
D03*
Y77470D02*
D03*
Y101120D02*
D03*
Y91920D02*
D03*
D19*
X213360Y91440D02*
D03*
D20*
X254000Y25400D02*
D03*
Y50800D02*
D03*
Y76200D02*
D03*
Y101600D02*
D03*
Y127000D02*
D03*
D21*
Y152400D02*
D03*
D22*
X35560Y35560D02*
D03*
X203200D02*
D03*
Y142240D02*
D03*
X35560D02*
D03*
D23*
X127000Y25400D02*
D03*
D24*
X101600D02*
D03*
X76200D02*
D03*
M02*
