G04*
G04 #@! TF.GenerationSoftware,Altium Limited,Altium Designer,22.9.1 (49)*
G04*
G04 Layer_Physical_Order=1*
G04 Layer_Color=255*
%FSLAX44Y44*%
%MOMM*%
G71*
G04*
G04 #@! TF.SameCoordinates,A8B0115D-A14B-43F8-95CD-E385AC25DAC2*
G04*
G04*
G04 #@! TF.FilePolarity,Positive*
G04*
G01*
G75*
%ADD25R,0.6000X0.9500*%
%ADD26R,0.6000X1.0000*%
G04:AMPARAMS|DCode=27|XSize=0.72mm|YSize=0.83mm|CornerRadius=0.18mm|HoleSize=0mm|Usage=FLASHONLY|Rotation=90.000|XOffset=0mm|YOffset=0mm|HoleType=Round|Shape=RoundedRectangle|*
%AMROUNDEDRECTD27*
21,1,0.7200,0.4700,0,0,90.0*
21,1,0.3600,0.8300,0,0,90.0*
1,1,0.3600,0.2350,0.1800*
1,1,0.3600,0.2350,-0.1800*
1,1,0.3600,-0.2350,-0.1800*
1,1,0.3600,-0.2350,0.1800*
%
%ADD27ROUNDEDRECTD27*%
G04:AMPARAMS|DCode=28|XSize=0.58mm|YSize=0.58mm|CornerRadius=0.1508mm|HoleSize=0mm|Usage=FLASHONLY|Rotation=270.000|XOffset=0mm|YOffset=0mm|HoleType=Round|Shape=RoundedRectangle|*
%AMROUNDEDRECTD28*
21,1,0.5800,0.2784,0,0,270.0*
21,1,0.2784,0.5800,0,0,270.0*
1,1,0.3016,-0.1392,-0.1392*
1,1,0.3016,-0.1392,0.1392*
1,1,0.3016,0.1392,0.1392*
1,1,0.3016,0.1392,-0.1392*
%
%ADD28ROUNDEDRECTD28*%
%ADD29C,1.2000*%
%ADD30C,0.2540*%
%ADD31C,0.6350*%
%ADD32C,1.6612*%
%ADD33R,1.6612X1.6612*%
%ADD34C,4.0640*%
G04:AMPARAMS|DCode=35|XSize=1.5mm|YSize=1.5mm|CornerRadius=0.15mm|HoleSize=0mm|Usage=FLASHONLY|Rotation=180.000|XOffset=0mm|YOffset=0mm|HoleType=Round|Shape=RoundedRectangle|*
%AMROUNDEDRECTD35*
21,1,1.5000,1.2000,0,0,180.0*
21,1,1.2000,1.5000,0,0,180.0*
1,1,0.3000,-0.6000,0.6000*
1,1,0.3000,0.6000,0.6000*
1,1,0.3000,0.6000,-0.6000*
1,1,0.3000,-0.6000,-0.6000*
%
%ADD35ROUNDEDRECTD35*%
%ADD36C,1.5000*%
D25*
X158140Y71120D02*
D03*
X167640D02*
D03*
X177140D02*
D03*
Y98620D02*
D03*
X158140D02*
D03*
D26*
X108610Y97320D02*
D03*
X127610D02*
D03*
Y70320D02*
D03*
X118110D02*
D03*
X108610D02*
D03*
D27*
X92710Y97220D02*
D03*
Y83120D02*
D03*
D28*
X143510Y68270D02*
D03*
Y77470D02*
D03*
Y101120D02*
D03*
Y91920D02*
D03*
D29*
X213360Y91440D02*
D03*
D30*
X223520Y101600D01*
X136800Y99659D02*
X142049D01*
X127610Y97320D02*
X134461D01*
X136800Y99659D01*
X142049D02*
X143510Y101120D01*
X137160Y10160D02*
X167640Y40640D01*
Y71120D01*
X116840Y10160D02*
X137160D01*
X223520Y101600D02*
X254000D01*
X228600Y127000D02*
X254000D01*
X200220Y98620D02*
X228600Y127000D01*
X177140Y98620D02*
X200220D01*
X101600Y25400D02*
X116840Y10160D01*
D31*
X91735Y82145D02*
Y82695D01*
X76200Y66610D02*
X91735Y82145D01*
X76200Y25400D02*
Y66610D01*
X92160Y83120D02*
X92710D01*
X91735Y82695D02*
X92160Y83120D01*
X143510D02*
X174080D01*
X229030Y50800D02*
X254000D01*
X196710Y83120D02*
X229030Y50800D01*
X174080Y83120D02*
X196710D01*
X254000Y25400D02*
Y50800D01*
X158140Y98620D02*
Y109401D01*
X154420Y113120D02*
X158140Y109401D01*
X121920Y113120D02*
X154420D01*
X121920Y112280D02*
Y113120D01*
X108610Y97320D02*
Y98970D01*
X121920Y112280D01*
X92760Y97270D02*
X108560D01*
X108610Y97320D01*
X92710Y97220D02*
X92760Y97270D01*
X143510Y83120D02*
Y91920D01*
X177315Y73655D02*
X177800Y74140D01*
Y79400D01*
X177140Y71120D02*
X177315Y71295D01*
Y73655D01*
X174080Y83120D02*
X177800Y79400D01*
X117323Y83120D02*
X143510D01*
X92710D02*
X117323D01*
X118110Y82332D01*
Y70320D02*
Y82332D01*
X141850Y66610D02*
X143510Y68270D01*
X136590Y66610D02*
X141850D01*
X134705Y68495D02*
X136590Y66610D01*
X127610Y68670D02*
X127785Y68495D01*
X134705D01*
X127610Y68670D02*
Y70320D01*
X127435Y50800D02*
Y70145D01*
Y25835D02*
Y50800D01*
X112330D02*
X127435D01*
X108610Y54520D02*
Y70320D01*
Y54520D02*
X112330Y50800D01*
X127000Y25400D02*
X127435Y25835D01*
Y70145D02*
X127610Y70320D01*
D32*
X254000Y25400D02*
D03*
Y50800D02*
D03*
Y76200D02*
D03*
Y101600D02*
D03*
Y127000D02*
D03*
D33*
Y152400D02*
D03*
D34*
X35560Y35560D02*
D03*
X203200D02*
D03*
Y142240D02*
D03*
X35560D02*
D03*
D35*
X127000Y25400D02*
D03*
D36*
X101600D02*
D03*
X76200D02*
D03*
M02*
