G04*
G04 #@! TF.GenerationSoftware,Altium Limited,Altium Designer,22.9.1 (49)*
G04*
G04 Layer_Color=65535*
%FSLAX44Y44*%
%MOMM*%
G71*
G04*
G04 #@! TF.SameCoordinates,A8B0115D-A14B-43F8-95CD-E385AC25DAC2*
G04*
G04*
G04 #@! TF.FilePolarity,Positive*
G04*
G01*
G75*
%ADD10C,0.2500*%
%ADD11C,0.4000*%
%ADD12C,0.2000*%
%ADD13C,0.1500*%
%ADD14C,0.1000*%
G36*
X108730Y170928D02*
X108941Y170914D01*
X109167Y170886D01*
X109434Y170858D01*
X109716Y170802D01*
X109998Y170745D01*
X110309Y170675D01*
X110619Y170590D01*
X110915Y170492D01*
X111211Y170365D01*
X111507Y170210D01*
X111775Y170054D01*
X112014Y169857D01*
X112028Y169843D01*
X112071Y169815D01*
X112127Y169744D01*
X112212Y169660D01*
X112310Y169561D01*
X112409Y169420D01*
X112522Y169265D01*
X112649Y169096D01*
X112761Y168899D01*
X112874Y168687D01*
X112987Y168447D01*
X113086Y168194D01*
X113184Y167926D01*
X113255Y167630D01*
X113297Y167320D01*
X113325Y166996D01*
X110703Y166897D01*
Y166911D01*
X110689Y166939D01*
Y166996D01*
X110675Y167052D01*
X110647Y167136D01*
X110619Y167235D01*
X110548Y167447D01*
X110449Y167672D01*
X110323Y167912D01*
X110168Y168137D01*
X109970Y168321D01*
X109942Y168335D01*
X109872Y168391D01*
X109745Y168462D01*
X109561Y168546D01*
X109322Y168631D01*
X109040Y168701D01*
X108701Y168758D01*
X108307Y168772D01*
X108124D01*
X108025Y168758D01*
X107912Y168743D01*
X107644Y168715D01*
X107362Y168659D01*
X107052Y168574D01*
X106770Y168447D01*
X106502Y168292D01*
X106488Y168278D01*
X106446Y168236D01*
X106376Y168165D01*
X106305Y168081D01*
X106220Y167968D01*
X106164Y167827D01*
X106108Y167672D01*
X106094Y167489D01*
Y167475D01*
Y167418D01*
X106108Y167320D01*
X106136Y167221D01*
X106192Y167094D01*
X106249Y166953D01*
X106347Y166826D01*
X106474Y166699D01*
X106502Y166685D01*
X106531Y166657D01*
X106587Y166629D01*
X106643Y166587D01*
X106728Y166544D01*
X106841Y166488D01*
X106967Y166432D01*
X107108Y166375D01*
X107278Y166305D01*
X107475Y166234D01*
X107701Y166164D01*
X107954Y166079D01*
X108236Y165995D01*
X108546Y165910D01*
X108885Y165825D01*
X108913D01*
X108969Y165811D01*
X109068Y165783D01*
X109195Y165755D01*
X109364Y165713D01*
X109533Y165656D01*
X109745Y165600D01*
X109956Y165543D01*
X110421Y165403D01*
X110886Y165247D01*
X111112Y165163D01*
X111338Y165078D01*
X111535Y164980D01*
X111718Y164895D01*
X111732D01*
X111761Y164867D01*
X111803Y164839D01*
X111873Y164810D01*
X112042Y164698D01*
X112254Y164557D01*
X112479Y164359D01*
X112719Y164134D01*
X112959Y163866D01*
X113170Y163570D01*
Y163556D01*
X113198Y163528D01*
X113212Y163485D01*
X113255Y163415D01*
X113297Y163330D01*
X113339Y163232D01*
X113382Y163119D01*
X113438Y162992D01*
X113480Y162851D01*
X113523Y162696D01*
X113607Y162344D01*
X113664Y161935D01*
X113692Y161498D01*
Y161483D01*
Y161455D01*
Y161385D01*
X113678Y161314D01*
Y161216D01*
X113664Y161089D01*
X113635Y160962D01*
X113607Y160821D01*
X113537Y160497D01*
X113424Y160144D01*
X113269Y159778D01*
X113170Y159580D01*
X113057Y159397D01*
Y159383D01*
X113029Y159355D01*
X112987Y159298D01*
X112945Y159242D01*
X112874Y159157D01*
X112804Y159059D01*
X112606Y158847D01*
X112353Y158622D01*
X112057Y158368D01*
X111704Y158143D01*
X111295Y157945D01*
X111281D01*
X111239Y157931D01*
X111182Y157903D01*
X111098Y157875D01*
X110985Y157832D01*
X110844Y157804D01*
X110689Y157762D01*
X110520Y157720D01*
X110323Y157663D01*
X110111Y157621D01*
X109872Y157593D01*
X109618Y157550D01*
X109364Y157522D01*
X109068Y157494D01*
X108772Y157480D01*
X108349D01*
X108222Y157494D01*
X108053D01*
X107856Y157508D01*
X107616Y157536D01*
X107348Y157579D01*
X107066Y157621D01*
X106756Y157677D01*
X106446Y157762D01*
X106136Y157846D01*
X105826Y157959D01*
X105515Y158086D01*
X105219Y158241D01*
X104938Y158410D01*
X104670Y158608D01*
X104656Y158622D01*
X104613Y158664D01*
X104543Y158735D01*
X104458Y158819D01*
X104360Y158946D01*
X104233Y159087D01*
X104106Y159256D01*
X103979Y159454D01*
X103838Y159679D01*
X103697Y159919D01*
X103570Y160201D01*
X103443Y160497D01*
X103330Y160821D01*
X103232Y161159D01*
X103147Y161540D01*
X103091Y161935D01*
X105642Y162188D01*
Y162174D01*
X105656Y162132D01*
X105671Y162062D01*
X105685Y161977D01*
X105713Y161864D01*
X105755Y161751D01*
X105840Y161469D01*
X105967Y161159D01*
X106136Y160835D01*
X106333Y160539D01*
X106446Y160412D01*
X106573Y160285D01*
X106587D01*
X106601Y160257D01*
X106643Y160229D01*
X106700Y160187D01*
X106770Y160144D01*
X106869Y160102D01*
X106967Y160046D01*
X107080Y159989D01*
X107362Y159876D01*
X107687Y159792D01*
X108067Y159721D01*
X108490Y159693D01*
X108617D01*
X108701Y159707D01*
X108814D01*
X108927Y159721D01*
X109209Y159764D01*
X109519Y159820D01*
X109843Y159919D01*
X110153Y160046D01*
X110294Y160130D01*
X110421Y160229D01*
X110435D01*
X110449Y160257D01*
X110520Y160328D01*
X110633Y160440D01*
X110745Y160581D01*
X110858Y160765D01*
X110971Y160990D01*
X111042Y161230D01*
X111070Y161357D01*
Y161483D01*
Y161498D01*
Y161568D01*
X111056Y161653D01*
X111042Y161751D01*
X110999Y161878D01*
X110957Y162019D01*
X110886Y162146D01*
X110788Y162273D01*
X110774Y162287D01*
X110731Y162329D01*
X110661Y162386D01*
X110576Y162470D01*
X110435Y162555D01*
X110280Y162654D01*
X110083Y162738D01*
X109843Y162837D01*
X109815Y162851D01*
X109787D01*
X109745Y162865D01*
X109688Y162879D01*
X109604Y162907D01*
X109519Y162936D01*
X109406Y162964D01*
X109279Y163006D01*
X109124Y163048D01*
X108955Y163091D01*
X108758Y163147D01*
X108546Y163203D01*
X108307Y163260D01*
X108039Y163330D01*
X107743Y163401D01*
X107715D01*
X107644Y163429D01*
X107545Y163457D01*
X107404Y163499D01*
X107221Y163542D01*
X107024Y163612D01*
X106812Y163683D01*
X106587Y163753D01*
X106094Y163951D01*
X105600Y164162D01*
X105375Y164289D01*
X105149Y164416D01*
X104952Y164543D01*
X104782Y164684D01*
X104768Y164698D01*
X104726Y164740D01*
X104670Y164796D01*
X104599Y164881D01*
X104501Y164980D01*
X104402Y165107D01*
X104289Y165247D01*
X104190Y165417D01*
X104078Y165600D01*
X103965Y165797D01*
X103866Y166023D01*
X103767Y166248D01*
X103697Y166488D01*
X103641Y166756D01*
X103598Y167024D01*
X103584Y167306D01*
Y167320D01*
Y167348D01*
Y167404D01*
X103598Y167475D01*
Y167559D01*
X103612Y167672D01*
X103655Y167912D01*
X103725Y168194D01*
X103824Y168518D01*
X103965Y168842D01*
X104148Y169166D01*
Y169181D01*
X104176Y169209D01*
X104205Y169251D01*
X104247Y169307D01*
X104388Y169462D01*
X104557Y169660D01*
X104797Y169871D01*
X105064Y170083D01*
X105403Y170294D01*
X105769Y170477D01*
X105783D01*
X105812Y170492D01*
X105882Y170520D01*
X105953Y170548D01*
X106065Y170590D01*
X106178Y170618D01*
X106319Y170661D01*
X106488Y170717D01*
X106671Y170759D01*
X106855Y170802D01*
X107066Y170830D01*
X107292Y170872D01*
X107545Y170900D01*
X107785Y170928D01*
X108335Y170943D01*
X108575D01*
X108730Y170928D01*
D02*
G37*
G36*
X62731D02*
X62943Y170914D01*
X63182Y170886D01*
X63436Y170858D01*
X63718Y170816D01*
X64014Y170759D01*
X64324Y170689D01*
X64634Y170618D01*
X64959Y170520D01*
X65269Y170393D01*
X65565Y170266D01*
X65847Y170111D01*
X66114Y169928D01*
X66129Y169914D01*
X66171Y169885D01*
X66241Y169829D01*
X66340Y169744D01*
X66439Y169632D01*
X66565Y169519D01*
X66707Y169364D01*
X66848Y169195D01*
X67003Y169011D01*
X67144Y168800D01*
X67299Y168560D01*
X67439Y168321D01*
X67566Y168053D01*
X67693Y167757D01*
X67792Y167447D01*
X67877Y167122D01*
X65269Y166629D01*
Y166643D01*
X65255Y166671D01*
X65240Y166728D01*
X65212Y166784D01*
X65184Y166869D01*
X65142Y166967D01*
X65029Y167179D01*
X64888Y167418D01*
X64705Y167672D01*
X64493Y167912D01*
X64225Y168137D01*
X64211D01*
X64197Y168165D01*
X64155Y168194D01*
X64085Y168222D01*
X64014Y168264D01*
X63929Y168321D01*
X63817Y168363D01*
X63704Y168419D01*
X63436Y168518D01*
X63112Y168617D01*
X62745Y168673D01*
X62336Y168701D01*
X62167D01*
X62055Y168687D01*
X61913Y168673D01*
X61744Y168645D01*
X61547Y168603D01*
X61350Y168560D01*
X61138Y168504D01*
X60913Y168433D01*
X60687Y168349D01*
X60462Y168236D01*
X60236Y168109D01*
X60010Y167968D01*
X59799Y167799D01*
X59602Y167602D01*
X59587Y167588D01*
X59559Y167545D01*
X59503Y167489D01*
X59447Y167390D01*
X59362Y167277D01*
X59277Y167136D01*
X59193Y166981D01*
X59094Y166784D01*
X58995Y166573D01*
X58911Y166333D01*
X58826Y166065D01*
X58742Y165769D01*
X58685Y165459D01*
X58629Y165121D01*
X58601Y164754D01*
X58587Y164359D01*
Y164331D01*
Y164261D01*
X58601Y164134D01*
Y163979D01*
X58615Y163781D01*
X58643Y163570D01*
X58671Y163316D01*
X58713Y163048D01*
X58770Y162780D01*
X58840Y162484D01*
X58925Y162202D01*
X59024Y161907D01*
X59136Y161625D01*
X59277Y161357D01*
X59432Y161103D01*
X59616Y160877D01*
X59630Y160863D01*
X59658Y160835D01*
X59728Y160765D01*
X59799Y160694D01*
X59912Y160609D01*
X60024Y160511D01*
X60180Y160412D01*
X60335Y160299D01*
X60518Y160187D01*
X60729Y160088D01*
X60941Y159989D01*
X61181Y159905D01*
X61448Y159834D01*
X61716Y159778D01*
X61998Y159735D01*
X62308Y159721D01*
X62449D01*
X62520Y159735D01*
X62618D01*
X62830Y159764D01*
X63084Y159806D01*
X63351Y159862D01*
X63647Y159933D01*
X63958Y160046D01*
X63972D01*
X64000Y160060D01*
X64042Y160074D01*
X64099Y160102D01*
X64254Y160173D01*
X64451Y160271D01*
X64676Y160384D01*
X64916Y160511D01*
X65156Y160652D01*
X65395Y160821D01*
Y162484D01*
X62393D01*
Y164684D01*
X68046D01*
Y159482D01*
X68032Y159468D01*
X68003Y159454D01*
X67961Y159411D01*
X67891Y159355D01*
X67806Y159284D01*
X67707Y159200D01*
X67580Y159115D01*
X67439Y159017D01*
X67270Y158904D01*
X67101Y158791D01*
X66904Y158678D01*
X66678Y158566D01*
X66453Y158439D01*
X66199Y158326D01*
X65931Y158199D01*
X65649Y158086D01*
X65635D01*
X65579Y158058D01*
X65494Y158030D01*
X65381Y157987D01*
X65240Y157945D01*
X65071Y157889D01*
X64874Y157846D01*
X64662Y157790D01*
X64437Y157734D01*
X64183Y157677D01*
X63929Y157621D01*
X63647Y157579D01*
X63070Y157508D01*
X62773Y157494D01*
X62477Y157480D01*
X62280D01*
X62139Y157494D01*
X61956Y157508D01*
X61744Y157522D01*
X61519Y157550D01*
X61265Y157593D01*
X60997Y157635D01*
X60715Y157691D01*
X60419Y157762D01*
X60109Y157832D01*
X59799Y157931D01*
X59503Y158044D01*
X59207Y158171D01*
X58911Y158326D01*
X58897Y158340D01*
X58840Y158368D01*
X58770Y158410D01*
X58657Y158481D01*
X58544Y158580D01*
X58389Y158678D01*
X58234Y158805D01*
X58065Y158960D01*
X57882Y159115D01*
X57698Y159298D01*
X57501Y159510D01*
X57318Y159721D01*
X57135Y159961D01*
X56951Y160215D01*
X56796Y160483D01*
X56641Y160779D01*
X56627Y160793D01*
X56613Y160849D01*
X56571Y160934D01*
X56529Y161061D01*
X56472Y161202D01*
X56402Y161385D01*
X56331Y161582D01*
X56261Y161808D01*
X56190Y162062D01*
X56120Y162329D01*
X56063Y162611D01*
X55993Y162907D01*
X55950Y163232D01*
X55908Y163556D01*
X55894Y163894D01*
X55880Y164247D01*
Y164275D01*
Y164331D01*
Y164444D01*
X55894Y164585D01*
X55908Y164768D01*
X55922Y164980D01*
X55950Y165205D01*
X55993Y165459D01*
X56035Y165727D01*
X56091Y166023D01*
X56162Y166319D01*
X56232Y166629D01*
X56331Y166939D01*
X56444Y167249D01*
X56571Y167559D01*
X56726Y167855D01*
X56740Y167869D01*
X56768Y167926D01*
X56810Y168011D01*
X56881Y168123D01*
X56980Y168250D01*
X57078Y168405D01*
X57205Y168574D01*
X57360Y168758D01*
X57515Y168955D01*
X57713Y169152D01*
X57910Y169350D01*
X58135Y169561D01*
X58375Y169758D01*
X58643Y169942D01*
X58925Y170125D01*
X59221Y170294D01*
X59235Y170308D01*
X59277Y170322D01*
X59348Y170351D01*
X59447Y170393D01*
X59573Y170449D01*
X59714Y170506D01*
X59883Y170562D01*
X60081Y170618D01*
X60292Y170675D01*
X60532Y170731D01*
X60786Y170788D01*
X61068Y170844D01*
X61364Y170886D01*
X61674Y170914D01*
X61998Y170943D01*
X62576D01*
X62731Y170928D01*
D02*
G37*
G36*
X185093Y167348D02*
X185178Y167334D01*
X185389Y167306D01*
X185643Y167249D01*
X185925Y167165D01*
X186221Y167038D01*
X186517Y166883D01*
X185742Y164712D01*
X185713Y164726D01*
X185629Y164782D01*
X185516Y164839D01*
X185361Y164923D01*
X185178Y164994D01*
X184980Y165064D01*
X184783Y165107D01*
X184571Y165121D01*
X184487D01*
X184388Y165107D01*
X184261Y165078D01*
X184120Y165050D01*
X183979Y164994D01*
X183824Y164923D01*
X183683Y164825D01*
X183669Y164810D01*
X183627Y164768D01*
X183556Y164698D01*
X183472Y164585D01*
X183387Y164444D01*
X183289Y164261D01*
X183190Y164049D01*
X183105Y163781D01*
Y163767D01*
X183091Y163739D01*
Y163697D01*
X183077Y163626D01*
X183063Y163542D01*
X183049Y163415D01*
X183021Y163274D01*
X183007Y163105D01*
X182993Y162907D01*
X182964Y162682D01*
X182950Y162428D01*
X182936Y162132D01*
X182922Y161808D01*
Y161455D01*
X182908Y161061D01*
Y160624D01*
Y157720D01*
X180413D01*
Y167150D01*
X182725D01*
Y165797D01*
X182739Y165811D01*
X182753Y165840D01*
X182781Y165882D01*
X182824Y165952D01*
X182936Y166122D01*
X183077Y166319D01*
X183246Y166530D01*
X183416Y166728D01*
X183599Y166911D01*
X183697Y166996D01*
X183782Y167052D01*
X183810Y167066D01*
X183867Y167094D01*
X183965Y167150D01*
X184092Y167207D01*
X184261Y167263D01*
X184445Y167320D01*
X184642Y167348D01*
X184867Y167362D01*
X185009D01*
X185093Y167348D01*
D02*
G37*
G36*
X161861D02*
X161946Y167334D01*
X162157Y167306D01*
X162411Y167249D01*
X162693Y167165D01*
X162989Y167038D01*
X163285Y166883D01*
X162510Y164712D01*
X162481Y164726D01*
X162397Y164782D01*
X162284Y164839D01*
X162129Y164923D01*
X161946Y164994D01*
X161749Y165064D01*
X161551Y165107D01*
X161340Y165121D01*
X161255D01*
X161156Y165107D01*
X161029Y165078D01*
X160889Y165050D01*
X160748Y164994D01*
X160592Y164923D01*
X160452Y164825D01*
X160437Y164810D01*
X160395Y164768D01*
X160325Y164698D01*
X160240Y164585D01*
X160156Y164444D01*
X160057Y164261D01*
X159958Y164049D01*
X159874Y163781D01*
Y163767D01*
X159860Y163739D01*
Y163697D01*
X159845Y163626D01*
X159831Y163542D01*
X159817Y163415D01*
X159789Y163274D01*
X159775Y163105D01*
X159761Y162907D01*
X159733Y162682D01*
X159719Y162428D01*
X159704Y162132D01*
X159690Y161808D01*
Y161455D01*
X159676Y161061D01*
Y160624D01*
Y157720D01*
X157181D01*
Y167150D01*
X159493D01*
Y165797D01*
X159507Y165811D01*
X159521Y165840D01*
X159549Y165882D01*
X159592Y165952D01*
X159704Y166122D01*
X159845Y166319D01*
X160014Y166530D01*
X160184Y166728D01*
X160367Y166911D01*
X160466Y166996D01*
X160550Y167052D01*
X160578Y167066D01*
X160635Y167094D01*
X160734Y167150D01*
X160860Y167207D01*
X161029Y167263D01*
X161213Y167320D01*
X161410Y167348D01*
X161636Y167362D01*
X161777D01*
X161861Y167348D01*
D02*
G37*
G36*
X131651D02*
X131863Y167320D01*
X132088Y167292D01*
X132342Y167235D01*
X132610Y167150D01*
X132864Y167052D01*
X132878D01*
X132892Y167038D01*
X132977Y166996D01*
X133103Y166939D01*
X133244Y166840D01*
X133413Y166742D01*
X133583Y166601D01*
X133752Y166460D01*
X133893Y166291D01*
X133907Y166276D01*
X133949Y166206D01*
X134006Y166122D01*
X134090Y165995D01*
X134175Y165840D01*
X134245Y165656D01*
X134330Y165459D01*
X134386Y165247D01*
Y165219D01*
X134414Y165135D01*
X134429Y165008D01*
X134457Y164825D01*
X134485Y164585D01*
X134499Y164303D01*
X134527Y163965D01*
Y163570D01*
Y157720D01*
X132032D01*
Y162527D01*
Y162541D01*
Y162597D01*
Y162668D01*
Y162780D01*
Y162893D01*
X132018Y163034D01*
Y163344D01*
X131990Y163683D01*
X131961Y164007D01*
X131947Y164162D01*
X131919Y164289D01*
X131891Y164402D01*
X131863Y164500D01*
Y164514D01*
X131835Y164571D01*
X131792Y164655D01*
X131736Y164754D01*
X131665Y164867D01*
X131581Y164994D01*
X131468Y165107D01*
X131341Y165205D01*
X131327Y165219D01*
X131285Y165247D01*
X131200Y165290D01*
X131102Y165332D01*
X130975Y165374D01*
X130834Y165417D01*
X130679Y165445D01*
X130495Y165459D01*
X130383D01*
X130270Y165445D01*
X130101Y165417D01*
X129931Y165374D01*
X129734Y165304D01*
X129523Y165219D01*
X129325Y165092D01*
X129297Y165078D01*
X129241Y165022D01*
X129156Y164951D01*
X129043Y164839D01*
X128931Y164712D01*
X128818Y164543D01*
X128719Y164359D01*
X128635Y164148D01*
X128621Y164120D01*
Y164091D01*
X128606Y164035D01*
X128592Y163965D01*
X128578Y163880D01*
X128564Y163781D01*
X128550Y163669D01*
X128522Y163528D01*
X128508Y163372D01*
X128494Y163189D01*
X128479Y162992D01*
X128465Y162780D01*
Y162541D01*
X128451Y162273D01*
Y161991D01*
Y157720D01*
X125956D01*
Y167150D01*
X128268D01*
Y165755D01*
X128282Y165769D01*
X128324Y165825D01*
X128395Y165910D01*
X128494Y166009D01*
X128606Y166122D01*
X128762Y166262D01*
X128917Y166403D01*
X129114Y166558D01*
X129325Y166714D01*
X129565Y166854D01*
X129819Y166996D01*
X130087Y167108D01*
X130383Y167221D01*
X130693Y167292D01*
X131017Y167348D01*
X131355Y167362D01*
X131496D01*
X131651Y167348D01*
D02*
G37*
G36*
X141886Y157720D02*
X139644D01*
X135852Y167150D01*
X138474D01*
X140251Y162329D01*
X140758Y160722D01*
Y160736D01*
X140772Y160751D01*
X140786Y160821D01*
X140829Y160934D01*
X140871Y161061D01*
X140913Y161187D01*
X140955Y161329D01*
X140984Y161441D01*
X141012Y161526D01*
Y161540D01*
X141040Y161596D01*
X141054Y161681D01*
X141096Y161780D01*
X141139Y161907D01*
X141181Y162033D01*
X141280Y162329D01*
X143070Y167150D01*
X145636D01*
X141886Y157720D01*
D02*
G37*
G36*
X123489D02*
X120867D01*
Y170731D01*
X123489D01*
Y157720D01*
D02*
G37*
G36*
X101272D02*
X98650D01*
Y170731D01*
X101272D01*
Y157720D01*
D02*
G37*
G36*
X96254Y168532D02*
X89234D01*
Y165656D01*
X95760D01*
Y163457D01*
X89234D01*
Y159919D01*
X96508D01*
Y157720D01*
X86611D01*
Y170731D01*
X96254D01*
Y168532D01*
D02*
G37*
G36*
X73163Y159919D02*
X79690D01*
Y157720D01*
X70541D01*
Y170618D01*
X73163D01*
Y159919D01*
D02*
G37*
G36*
X174196Y167348D02*
X174351Y167334D01*
X174520Y167320D01*
X174732Y167292D01*
X174957Y167249D01*
X175197Y167193D01*
X175465Y167108D01*
X175733Y167024D01*
X176000Y166911D01*
X176283Y166770D01*
X176550Y166615D01*
X176818Y166432D01*
X177072Y166206D01*
X177312Y165966D01*
X177326Y165952D01*
X177368Y165896D01*
X177424Y165825D01*
X177495Y165713D01*
X177593Y165558D01*
X177692Y165374D01*
X177805Y165163D01*
X177918Y164923D01*
X178030Y164641D01*
X178129Y164317D01*
X178228Y163979D01*
X178312Y163598D01*
X178383Y163175D01*
X178439Y162724D01*
X178482Y162245D01*
Y161723D01*
X172237D01*
Y161709D01*
Y161681D01*
Y161610D01*
X172251Y161540D01*
X172265Y161441D01*
X172279Y161329D01*
X172321Y161089D01*
X172392Y160807D01*
X172490Y160511D01*
X172631Y160229D01*
X172829Y159975D01*
X172843D01*
X172857Y159947D01*
X172927Y159876D01*
X173054Y159778D01*
X173223Y159679D01*
X173435Y159566D01*
X173689Y159468D01*
X173971Y159397D01*
X174126Y159383D01*
X174281Y159369D01*
X174379D01*
X174478Y159383D01*
X174619Y159411D01*
X174774Y159439D01*
X174929Y159496D01*
X175098Y159580D01*
X175253Y159679D01*
X175268Y159693D01*
X175324Y159735D01*
X175394Y159820D01*
X175479Y159933D01*
X175592Y160074D01*
X175690Y160257D01*
X175789Y160469D01*
X175874Y160722D01*
X178355Y160299D01*
Y160285D01*
X178326Y160243D01*
X178298Y160173D01*
X178270Y160074D01*
X178214Y159961D01*
X178143Y159834D01*
X178073Y159679D01*
X177988Y159524D01*
X177777Y159186D01*
X177509Y158847D01*
X177199Y158509D01*
X177015Y158354D01*
X176832Y158213D01*
X176818Y158199D01*
X176790Y158185D01*
X176734Y158143D01*
X176649Y158100D01*
X176550Y158044D01*
X176423Y157987D01*
X176283Y157931D01*
X176127Y157861D01*
X175944Y157790D01*
X175747Y157734D01*
X175535Y157677D01*
X175310Y157621D01*
X175070Y157579D01*
X174802Y157536D01*
X174534Y157522D01*
X174252Y157508D01*
X174140D01*
X174013Y157522D01*
X173844Y157536D01*
X173646Y157550D01*
X173407Y157593D01*
X173153Y157635D01*
X172871Y157706D01*
X172575Y157790D01*
X172279Y157903D01*
X171983Y158030D01*
X171673Y158185D01*
X171391Y158368D01*
X171109Y158580D01*
X170855Y158819D01*
X170616Y159101D01*
X170601Y159115D01*
X170573Y159157D01*
X170531Y159228D01*
X170474Y159341D01*
X170404Y159468D01*
X170319Y159609D01*
X170235Y159792D01*
X170150Y159989D01*
X170066Y160215D01*
X169981Y160469D01*
X169897Y160736D01*
X169826Y161018D01*
X169770Y161329D01*
X169727Y161653D01*
X169699Y162005D01*
X169685Y162358D01*
Y162386D01*
Y162456D01*
X169699Y162583D01*
Y162738D01*
X169727Y162936D01*
X169756Y163175D01*
X169784Y163415D01*
X169840Y163697D01*
X169897Y163979D01*
X169981Y164275D01*
X170080Y164585D01*
X170193Y164895D01*
X170333Y165191D01*
X170503Y165487D01*
X170686Y165769D01*
X170897Y166023D01*
X170912Y166037D01*
X170954Y166079D01*
X171024Y166150D01*
X171123Y166234D01*
X171236Y166333D01*
X171391Y166446D01*
X171560Y166573D01*
X171743Y166699D01*
X171955Y166812D01*
X172194Y166939D01*
X172448Y167052D01*
X172730Y167150D01*
X173012Y167235D01*
X173322Y167306D01*
X173660Y167348D01*
X173999Y167362D01*
X174097D01*
X174196Y167348D01*
D02*
G37*
G36*
X166978Y167150D02*
X168684D01*
Y165163D01*
X166978D01*
Y161357D01*
Y161343D01*
Y161300D01*
Y161244D01*
Y161173D01*
Y161089D01*
Y160976D01*
Y160751D01*
X166993Y160525D01*
Y160299D01*
X167007Y160201D01*
Y160116D01*
X167021Y160046D01*
Y160003D01*
Y159989D01*
X167035Y159975D01*
X167063Y159891D01*
X167134Y159792D01*
X167232Y159693D01*
X167246D01*
X167260Y159679D01*
X167303Y159665D01*
X167359Y159637D01*
X167486Y159594D01*
X167655Y159580D01*
X167726D01*
X167796Y159594D01*
X167909Y159609D01*
X168050Y159637D01*
X168233Y159679D01*
X168430Y159735D01*
X168656Y159806D01*
X168882Y157875D01*
X168867D01*
X168839Y157861D01*
X168797Y157846D01*
X168727Y157818D01*
X168642Y157790D01*
X168543Y157762D01*
X168430Y157720D01*
X168304Y157691D01*
X168022Y157621D01*
X167683Y157565D01*
X167303Y157522D01*
X166908Y157508D01*
X166795D01*
X166668Y157522D01*
X166499Y157536D01*
X166316Y157565D01*
X166119Y157607D01*
X165907Y157663D01*
X165696Y157734D01*
X165667Y157748D01*
X165611Y157776D01*
X165512Y157818D01*
X165400Y157889D01*
X165273Y157973D01*
X165132Y158072D01*
X165019Y158185D01*
X164906Y158312D01*
X164892Y158326D01*
X164864Y158382D01*
X164822Y158467D01*
X164765Y158566D01*
X164709Y158706D01*
X164653Y158876D01*
X164596Y159073D01*
X164554Y159284D01*
Y159313D01*
X164540Y159369D01*
Y159425D01*
X164526Y159496D01*
Y159580D01*
Y159665D01*
X164512Y159778D01*
Y159905D01*
X164497Y160046D01*
Y160215D01*
X164483Y160398D01*
Y160595D01*
Y160807D01*
Y161047D01*
Y165163D01*
X163341D01*
Y167150D01*
X164483D01*
Y169025D01*
X166978Y170492D01*
Y167150D01*
D02*
G37*
G36*
X150964Y167348D02*
X151119Y167334D01*
X151288Y167320D01*
X151500Y167292D01*
X151726Y167249D01*
X151965Y167193D01*
X152233Y167108D01*
X152501Y167024D01*
X152769Y166911D01*
X153051Y166770D01*
X153319Y166615D01*
X153586Y166432D01*
X153840Y166206D01*
X154080Y165966D01*
X154094Y165952D01*
X154136Y165896D01*
X154192Y165825D01*
X154263Y165713D01*
X154362Y165558D01*
X154460Y165374D01*
X154573Y165163D01*
X154686Y164923D01*
X154799Y164641D01*
X154897Y164317D01*
X154996Y163979D01*
X155081Y163598D01*
X155151Y163175D01*
X155208Y162724D01*
X155250Y162245D01*
Y161723D01*
X149005D01*
Y161709D01*
Y161681D01*
Y161610D01*
X149019Y161540D01*
X149033Y161441D01*
X149047Y161329D01*
X149089Y161089D01*
X149160Y160807D01*
X149258Y160511D01*
X149399Y160229D01*
X149597Y159975D01*
X149611D01*
X149625Y159947D01*
X149696Y159876D01*
X149822Y159778D01*
X149992Y159679D01*
X150203Y159566D01*
X150457Y159468D01*
X150739Y159397D01*
X150894Y159383D01*
X151049Y159369D01*
X151147D01*
X151246Y159383D01*
X151387Y159411D01*
X151542Y159439D01*
X151697Y159496D01*
X151867Y159580D01*
X152022Y159679D01*
X152036Y159693D01*
X152092Y159735D01*
X152163Y159820D01*
X152247Y159933D01*
X152360Y160074D01*
X152458Y160257D01*
X152557Y160469D01*
X152642Y160722D01*
X155123Y160299D01*
Y160285D01*
X155095Y160243D01*
X155066Y160173D01*
X155038Y160074D01*
X154982Y159961D01*
X154911Y159834D01*
X154841Y159679D01*
X154756Y159524D01*
X154545Y159186D01*
X154277Y158847D01*
X153967Y158509D01*
X153784Y158354D01*
X153600Y158213D01*
X153586Y158199D01*
X153558Y158185D01*
X153502Y158143D01*
X153417Y158100D01*
X153319Y158044D01*
X153192Y157987D01*
X153051Y157931D01*
X152896Y157861D01*
X152712Y157790D01*
X152515Y157734D01*
X152303Y157677D01*
X152078Y157621D01*
X151838Y157579D01*
X151570Y157536D01*
X151303Y157522D01*
X151021Y157508D01*
X150908D01*
X150781Y157522D01*
X150612Y157536D01*
X150414Y157550D01*
X150175Y157593D01*
X149921Y157635D01*
X149639Y157706D01*
X149343Y157790D01*
X149047Y157903D01*
X148751Y158030D01*
X148441Y158185D01*
X148159Y158368D01*
X147877Y158580D01*
X147623Y158819D01*
X147384Y159101D01*
X147369Y159115D01*
X147341Y159157D01*
X147299Y159228D01*
X147243Y159341D01*
X147172Y159468D01*
X147088Y159609D01*
X147003Y159792D01*
X146918Y159989D01*
X146834Y160215D01*
X146749Y160469D01*
X146665Y160736D01*
X146594Y161018D01*
X146538Y161329D01*
X146496Y161653D01*
X146467Y162005D01*
X146453Y162358D01*
Y162386D01*
Y162456D01*
X146467Y162583D01*
Y162738D01*
X146496Y162936D01*
X146524Y163175D01*
X146552Y163415D01*
X146608Y163697D01*
X146665Y163979D01*
X146749Y164275D01*
X146848Y164585D01*
X146961Y164895D01*
X147102Y165191D01*
X147271Y165487D01*
X147454Y165769D01*
X147666Y166023D01*
X147680Y166037D01*
X147722Y166079D01*
X147792Y166150D01*
X147891Y166234D01*
X148004Y166333D01*
X148159Y166446D01*
X148328Y166573D01*
X148511Y166699D01*
X148723Y166812D01*
X148962Y166939D01*
X149216Y167052D01*
X149498Y167150D01*
X149780Y167235D01*
X150090Y167306D01*
X150429Y167348D01*
X150767Y167362D01*
X150866D01*
X150964Y167348D01*
D02*
G37*
G36*
X59617Y124368D02*
X59926Y124324D01*
X60191D01*
X60367Y124280D01*
X60808Y124235D01*
X61293Y124147D01*
X61337D01*
X61381Y124103D01*
X61513D01*
X61690Y124059D01*
X62131Y123927D01*
X62616Y123750D01*
X62660D01*
X62748Y123706D01*
X62880Y123662D01*
X63057Y123574D01*
X63542Y123398D01*
X64159Y123089D01*
X64865Y122692D01*
X65658Y122207D01*
X66452Y121634D01*
X67201Y120928D01*
X67246D01*
X67290Y120840D01*
X67554Y120576D01*
X67907Y120179D01*
X68304Y119606D01*
X68789Y118944D01*
X69274Y118150D01*
X69715Y117268D01*
X70068Y116299D01*
Y116254D01*
X70112Y116166D01*
X70156Y116034D01*
X70200Y115857D01*
X70244Y115593D01*
X70332Y115328D01*
X70420Y114623D01*
X70553Y113785D01*
X70597Y112859D01*
Y111889D01*
X70509Y110831D01*
Y110787D01*
X70465Y110654D01*
X70420Y110478D01*
X70376Y110213D01*
X70288Y109861D01*
X70156Y109508D01*
X70023Y109067D01*
X69847Y108582D01*
X69406Y107568D01*
X68833Y106510D01*
X68083Y105407D01*
X67687Y104878D01*
X67201Y104349D01*
X67157Y104305D01*
X67069Y104217D01*
X66937Y104084D01*
X66716Y103908D01*
X66496Y103732D01*
X66187Y103467D01*
X65835Y103202D01*
X65438Y102938D01*
X64953Y102673D01*
X64468Y102365D01*
X63365Y101835D01*
X62131Y101395D01*
X61425Y101174D01*
X60720Y101042D01*
X60676D01*
X60543Y100998D01*
X60279D01*
X60014Y100954D01*
X59617D01*
X59220Y100910D01*
X58338D01*
X57589Y100954D01*
Y100645D01*
Y100601D01*
Y100380D01*
X57633Y100116D01*
X57721Y99719D01*
X57809Y99234D01*
X57942Y98749D01*
X58118Y98176D01*
X58338Y97558D01*
Y97514D01*
X58383Y97426D01*
X58471Y97250D01*
X58559Y97029D01*
X58691Y96765D01*
X58824Y96500D01*
X59132Y95795D01*
X59176Y95751D01*
X59220Y95662D01*
X59309Y95486D01*
X59397Y95309D01*
X59573Y94913D01*
X59661Y94780D01*
X59705Y94692D01*
X59926Y94913D01*
X59970Y94957D01*
X60102Y95001D01*
X60279Y95133D01*
X60543Y95265D01*
X60896Y95398D01*
X61293Y95530D01*
X61734Y95618D01*
X62219Y95706D01*
X64159D01*
X64379Y95662D01*
X64644Y95618D01*
X64909Y95530D01*
X64953Y95486D01*
X65173Y95442D01*
X65438Y95309D01*
X65835Y95089D01*
X66055Y94913D01*
X66187Y94957D01*
X66231Y95001D01*
X66320Y95045D01*
X66452Y95089D01*
X66761D01*
X66893Y95045D01*
X67025Y94957D01*
X67069Y94913D01*
X67201Y94824D01*
X67378Y94604D01*
X67731Y94295D01*
X67775Y94251D01*
X67819Y94163D01*
X68083Y93898D01*
X68348Y93546D01*
X68612Y93237D01*
X68657Y93193D01*
X68745Y93061D01*
X68877Y92884D01*
X69009Y92664D01*
X69054Y92620D01*
X69098Y92532D01*
X69142Y92355D01*
X69186Y92223D01*
Y92179D01*
X69230Y92091D01*
Y91958D01*
Y91738D01*
X69186Y91429D01*
Y91165D01*
Y91121D01*
X69142Y91076D01*
X69009Y90812D01*
X68789Y90459D01*
X68480Y90018D01*
X68216Y89754D01*
X68260Y89710D01*
X68304Y89621D01*
X68436Y89445D01*
X68480Y89357D01*
X68568Y89136D01*
X68745Y88784D01*
X68965Y88343D01*
Y88299D01*
X69009Y88254D01*
X69142Y87990D01*
X69274Y87637D01*
X69406Y87329D01*
X69450D01*
X69583Y87373D01*
X69671Y87417D01*
X69847Y87461D01*
X69891D01*
X69979Y87505D01*
X70156Y87549D01*
X70376Y87593D01*
X70685Y87637D01*
X70994Y87725D01*
X71787Y87902D01*
X72669Y88034D01*
X73595Y88210D01*
X74565Y88343D01*
X75535Y88431D01*
X78005D01*
X78269Y88387D01*
X78578Y88343D01*
X79239Y88210D01*
X79592Y88078D01*
X79901Y87946D01*
X79945D01*
X79989Y87902D01*
X80253Y87725D01*
X80562Y87461D01*
X80827Y87108D01*
X80871Y87064D01*
X80915Y86976D01*
X80959Y86843D01*
Y86667D01*
Y86623D01*
X81003Y86535D01*
Y86314D01*
Y86094D01*
Y85653D01*
X80959Y85432D01*
Y85388D01*
X80915Y85344D01*
X80871Y85212D01*
X80827Y85035D01*
X80738Y84815D01*
X80606Y84551D01*
X80297Y83889D01*
X79812Y83095D01*
X79504Y82698D01*
X79151Y82213D01*
X78754Y81773D01*
X78313Y81243D01*
X77784Y80758D01*
X77211Y80229D01*
X77167Y80185D01*
X77079Y80097D01*
X76858Y79921D01*
X76638Y79744D01*
X76285Y79480D01*
X75932Y79171D01*
X75447Y78818D01*
X74962Y78421D01*
X74433Y77980D01*
X73816Y77540D01*
X73154Y77055D01*
X72449Y76525D01*
X70950Y75467D01*
X69318Y74365D01*
X69274Y74321D01*
X69098Y74232D01*
X68877Y74100D01*
X68524Y73880D01*
X68127Y73615D01*
X67642Y73306D01*
X67069Y72954D01*
X66452Y72601D01*
X65746Y72204D01*
X64997Y71763D01*
X64203Y71322D01*
X63365Y70837D01*
X61602Y69911D01*
X59705Y68941D01*
X59661D01*
X59529Y68853D01*
X59309Y68765D01*
X59044Y68632D01*
X58691Y68456D01*
X58294Y68280D01*
X57853Y68059D01*
X57368Y67839D01*
X56310Y67310D01*
X55120Y66781D01*
X53929Y66251D01*
X52738Y65766D01*
X52694D01*
X52606Y65722D01*
X52430Y65678D01*
X52253Y65590D01*
X51989Y65502D01*
X51680Y65369D01*
X51019Y65149D01*
X50269Y64928D01*
X49520Y64708D01*
X48858Y64576D01*
X48241Y64488D01*
X48153D01*
X47932Y64532D01*
X47579Y64620D01*
X47227Y64840D01*
X47183Y64884D01*
X47094Y64928D01*
X46962Y65061D01*
X46742Y65237D01*
X46698Y65281D01*
X46565Y65413D01*
X46389Y65590D01*
X46257Y65766D01*
X46036Y66031D01*
X45860Y65766D01*
X45816Y65722D01*
X45728Y65590D01*
X45551Y65369D01*
X45375Y65149D01*
X44802Y64532D01*
X44184Y63958D01*
X44140Y63914D01*
X44052Y63826D01*
X43876Y63738D01*
X43699Y63562D01*
X43170Y63253D01*
X42906Y63121D01*
X42641Y63032D01*
X41979D01*
X41847Y63121D01*
X41671Y63165D01*
X41450Y63297D01*
X41406Y63341D01*
X41318Y63385D01*
X41186Y63517D01*
X41009Y63694D01*
X40789Y63958D01*
X40524Y64267D01*
X40216Y64708D01*
X39907Y65193D01*
X39863Y65281D01*
X39731Y65502D01*
X39554Y65855D01*
X39334Y66340D01*
X39069Y66869D01*
X38805Y67530D01*
X38496Y68191D01*
X38187Y68941D01*
Y68985D01*
X38143Y69029D01*
X38055Y69250D01*
X37967Y69602D01*
X37791Y70043D01*
X37526Y70969D01*
X37438Y71410D01*
X37394Y71763D01*
Y71807D01*
Y71895D01*
X37482Y72160D01*
X37658Y72557D01*
X37835Y72733D01*
X38011Y72910D01*
X38055Y72954D01*
X38143Y72998D01*
X38276Y73086D01*
X38540Y73174D01*
X38849Y73262D01*
X39246Y73395D01*
X39731Y73483D01*
X40304Y73527D01*
X43126D01*
Y73571D01*
Y73615D01*
X43082Y73791D01*
Y74100D01*
X43038Y74497D01*
Y74541D01*
Y74585D01*
Y74850D01*
Y75202D01*
Y75555D01*
Y75599D01*
Y75687D01*
X43082Y75864D01*
X43126Y76084D01*
X43214Y76525D01*
X43302Y76746D01*
X43390Y76922D01*
X43435Y77010D01*
X43611Y77231D01*
X43964Y77540D01*
X44184Y77716D01*
X44449Y77892D01*
X44493Y77936D01*
X44581Y77980D01*
X44757Y78113D01*
X45022Y78245D01*
X45331Y78421D01*
X45728Y78642D01*
X46168Y78906D01*
X46653Y79171D01*
X46918Y79347D01*
X46477Y79391D01*
X46433D01*
X46257Y79436D01*
X46036Y79524D01*
X45683Y79612D01*
X45287Y79744D01*
X44802Y79921D01*
X44272Y80097D01*
X43699Y80317D01*
X42464Y80935D01*
X41803Y81287D01*
X41142Y81684D01*
X40480Y82125D01*
X39819Y82610D01*
X39158Y83184D01*
X38540Y83757D01*
X38452Y83845D01*
X38276Y84021D01*
X37967Y84374D01*
X37614Y84815D01*
X37173Y85388D01*
X36688Y86050D01*
X36203Y86799D01*
X35762Y87593D01*
X35189Y88651D01*
Y88695D01*
X35145Y88740D01*
X35057Y88916D01*
X34969Y89136D01*
X34880Y89313D01*
Y89357D01*
X34836Y89401D01*
Y89445D01*
X34792Y89489D01*
X34748Y89533D01*
X34572Y89577D01*
X34307Y89665D01*
X34042Y89754D01*
X33998Y89798D01*
X33822Y89886D01*
X33602Y90062D01*
X33337Y90327D01*
X33072Y90591D01*
X32764Y90988D01*
X32543Y91429D01*
X32367Y91914D01*
Y91958D01*
X32323Y92091D01*
X32279Y92267D01*
Y92532D01*
Y92620D01*
Y92752D01*
Y92928D01*
X32323Y93105D01*
Y93149D01*
X32367Y93237D01*
X32411Y93413D01*
X32499Y93590D01*
Y93634D01*
X32543Y93722D01*
X32587Y93854D01*
X32676Y94075D01*
X32984Y94516D01*
X33381Y94957D01*
X33425Y95001D01*
X33513Y95045D01*
X33646Y95133D01*
X33822Y95265D01*
X34263Y95530D01*
X34836Y95706D01*
X36115D01*
X36247Y95662D01*
X36424Y95574D01*
X36644Y95486D01*
X37173Y95177D01*
X37702Y94736D01*
X37746Y94692D01*
X37791Y94604D01*
X37923Y94472D01*
X38055Y94251D01*
X38187Y93987D01*
X38320Y93722D01*
X38408Y93369D01*
X38496Y93017D01*
Y92972D01*
X38540Y92840D01*
Y92664D01*
Y92443D01*
X38452Y91826D01*
X38364Y91517D01*
X38231Y91165D01*
Y91121D01*
X38143Y91032D01*
X38055Y90856D01*
X37923Y90680D01*
X37526Y90239D01*
X37261Y90018D01*
X36953Y89798D01*
X36865D01*
X36820Y89754D01*
X37085Y89445D01*
X37129Y89357D01*
X37350Y89136D01*
X37614Y88828D01*
X38011Y88387D01*
X38496Y87902D01*
X39025Y87373D01*
X39598Y86843D01*
X40260Y86358D01*
X40348Y86314D01*
X40568Y86182D01*
X40921Y85962D01*
X41362Y85697D01*
X41891Y85432D01*
X42464Y85212D01*
X43082Y84991D01*
X43743Y84859D01*
X43920D01*
X44140Y84815D01*
X44978D01*
X45198Y84859D01*
X45287D01*
X45463Y84903D01*
X45728Y84947D01*
X45992Y85035D01*
X46168Y85168D01*
Y85653D01*
Y85697D01*
Y85741D01*
Y86006D01*
X46213Y86403D01*
X46257Y86888D01*
X46345Y87505D01*
X46477Y88210D01*
X46653Y88960D01*
X46874Y89710D01*
X47668Y91870D01*
X48109Y92708D01*
X49828Y96147D01*
Y96191D01*
X49917Y96280D01*
X50005Y96456D01*
X50093Y96632D01*
X50313Y97117D01*
X50578Y97691D01*
X50622Y97735D01*
X50666Y97911D01*
X50798Y98176D01*
X50931Y98528D01*
X51107Y98925D01*
X51283Y99366D01*
X51636Y100292D01*
Y100336D01*
X51724Y100513D01*
X51768Y100733D01*
X51901Y101042D01*
X51989Y101395D01*
X52077Y101747D01*
X52253Y102497D01*
X52298Y102806D01*
Y102894D01*
X52209Y102938D01*
X52033Y103114D01*
X51724Y103335D01*
X51328Y103643D01*
X50887Y104040D01*
X50402Y104525D01*
X49917Y105054D01*
X49475Y105628D01*
Y105672D01*
X49387Y105716D01*
X49299Y105848D01*
X49211Y106025D01*
X48902Y106465D01*
X48594Y107083D01*
X48197Y107788D01*
X47844Y108626D01*
X47535Y109552D01*
X47315Y110522D01*
Y110566D01*
Y110610D01*
X47271Y110831D01*
X47227Y111139D01*
X47139Y111492D01*
Y111536D01*
Y111580D01*
Y111801D01*
X47094Y112198D01*
Y112639D01*
Y112683D01*
Y112771D01*
Y113035D01*
Y113388D01*
X47139Y113741D01*
Y113785D01*
Y113829D01*
X47183Y114050D01*
X47271Y114402D01*
X47315Y114799D01*
Y114888D01*
X47359Y115064D01*
X47447Y115372D01*
X47579Y115769D01*
X47712Y116254D01*
X47888Y116739D01*
X48329Y117842D01*
Y117886D01*
X48417Y118018D01*
X48506Y118195D01*
X48638Y118415D01*
X48946Y118944D01*
X49299Y119473D01*
X49343Y119517D01*
X49387Y119606D01*
X49520Y119738D01*
X49652Y119958D01*
X50049Y120399D01*
X50578Y120928D01*
X50622Y120972D01*
X50842Y121149D01*
X51107Y121413D01*
X51504Y121766D01*
X51989Y122119D01*
X52518Y122472D01*
X53091Y122868D01*
X53753Y123221D01*
X53797D01*
X53841Y123265D01*
X54106Y123354D01*
X54458Y123530D01*
X54987Y123706D01*
X55561Y123883D01*
X56266Y124059D01*
X57016Y124235D01*
X57809Y124324D01*
X57898D01*
X58118Y124368D01*
X58471Y124412D01*
X59309D01*
X59617Y124368D01*
D02*
G37*
G36*
X33866Y68280D02*
X34042Y68236D01*
X34263Y68103D01*
X34527Y67927D01*
X34836Y67662D01*
X35189Y67310D01*
X35542Y66869D01*
X35586Y66825D01*
X35630Y66692D01*
X35762Y66516D01*
X35894Y66295D01*
X36027Y65987D01*
X36159Y65678D01*
X36424Y64928D01*
Y64884D01*
X36468Y64752D01*
X36512Y64576D01*
Y64399D01*
X36556Y63870D01*
X36512Y63650D01*
X36468Y63429D01*
X36424Y63385D01*
X36379Y63297D01*
X36247Y63209D01*
X36027Y63032D01*
X35983D01*
X35850Y62988D01*
X35630Y62900D01*
X35321Y62812D01*
X34924Y62680D01*
X34351Y62547D01*
X33734Y62371D01*
X32940Y62195D01*
X32852D01*
X32720Y62151D01*
X32543Y62106D01*
X32323Y62062D01*
X32058Y62018D01*
X31706Y61974D01*
X31353Y61886D01*
X30956Y61842D01*
X30515Y61754D01*
X29457Y61577D01*
X28266Y61357D01*
X26899Y61136D01*
X25621Y60960D01*
X25532D01*
X25488Y61004D01*
X25444D01*
X25400Y61048D01*
Y61092D01*
X25444Y61181D01*
X25532Y61269D01*
X29016Y64796D01*
X29060Y64840D01*
X29148Y64928D01*
X29280Y65061D01*
X29457Y65237D01*
X29942Y65678D01*
X30559Y66207D01*
X31176Y66736D01*
X31882Y67310D01*
X32499Y67751D01*
X32764Y67927D01*
X33028Y68059D01*
X33117Y68103D01*
X33293Y68191D01*
X33513Y68280D01*
X33734Y68324D01*
X33778D01*
X33866Y68280D01*
D02*
G37*
G36*
X145753Y150439D02*
X145908Y150425D01*
X146092Y150397D01*
X146303Y150369D01*
X146529Y150327D01*
X146768Y150270D01*
X147008Y150200D01*
X147262Y150115D01*
X147516Y150016D01*
X147755Y149890D01*
X147995Y149749D01*
X148235Y149594D01*
X148446Y149410D01*
X148460Y149396D01*
X148488Y149368D01*
X148545Y149298D01*
X148615Y149227D01*
X148700Y149128D01*
X148798Y149002D01*
X148897Y148861D01*
X149010Y148691D01*
X149108Y148522D01*
X149207Y148325D01*
X149306Y148113D01*
X149390Y147888D01*
X149461Y147634D01*
X149517Y147380D01*
X149545Y147113D01*
X149560Y146831D01*
Y146816D01*
Y146788D01*
Y146746D01*
Y146676D01*
X149545Y146605D01*
Y146506D01*
X149517Y146295D01*
X149475Y146027D01*
X149419Y145745D01*
X149348Y145449D01*
X149235Y145153D01*
Y145139D01*
X149221Y145125D01*
X149207Y145068D01*
X149179Y145012D01*
X149137Y144942D01*
X149094Y144857D01*
X148996Y144646D01*
X148855Y144406D01*
X148686Y144124D01*
X148474Y143814D01*
X148235Y143490D01*
X148206Y143461D01*
X148150Y143377D01*
X148023Y143250D01*
X147868Y143067D01*
X147755Y142954D01*
X147642Y142827D01*
X147501Y142700D01*
X147360Y142545D01*
X147191Y142390D01*
X147008Y142207D01*
X146811Y142023D01*
X146599Y141826D01*
X146585Y141812D01*
X146543Y141784D01*
X146487Y141727D01*
X146416Y141657D01*
X146317Y141572D01*
X146205Y141474D01*
X145965Y141248D01*
X145711Y141009D01*
X145471Y140769D01*
X145359Y140656D01*
X145260Y140557D01*
X145176Y140459D01*
X145105Y140388D01*
X145091Y140374D01*
X145049Y140332D01*
X144992Y140261D01*
X144922Y140177D01*
X144851Y140064D01*
X144767Y139951D01*
X144598Y139712D01*
X149560D01*
Y137400D01*
X140820D01*
Y137414D01*
X140834Y137456D01*
Y137527D01*
X140848Y137625D01*
X140876Y137738D01*
X140904Y137879D01*
X140932Y138034D01*
X140975Y138203D01*
X141087Y138584D01*
X141242Y139007D01*
X141426Y139444D01*
X141665Y139881D01*
X141679Y139895D01*
X141693Y139937D01*
X141750Y140008D01*
X141806Y140092D01*
X141891Y140205D01*
X142004Y140360D01*
X142130Y140515D01*
X142286Y140712D01*
X142455Y140924D01*
X142666Y141150D01*
X142892Y141417D01*
X143146Y141685D01*
X143427Y141981D01*
X143752Y142305D01*
X144090Y142644D01*
X144471Y142996D01*
X144485Y143010D01*
X144541Y143067D01*
X144626Y143151D01*
X144739Y143250D01*
X144879Y143377D01*
X145020Y143518D01*
X145190Y143687D01*
X145359Y143856D01*
X145725Y144208D01*
X146064Y144561D01*
X146205Y144716D01*
X146346Y144871D01*
X146458Y145012D01*
X146543Y145125D01*
Y145139D01*
X146571Y145153D01*
X146585Y145195D01*
X146628Y145252D01*
X146712Y145407D01*
X146811Y145604D01*
X146895Y145830D01*
X146980Y146083D01*
X147036Y146365D01*
X147065Y146647D01*
Y146661D01*
Y146690D01*
Y146732D01*
Y146788D01*
X147036Y146929D01*
X147008Y147127D01*
X146952Y147324D01*
X146881Y147535D01*
X146768Y147747D01*
X146613Y147930D01*
X146599Y147944D01*
X146529Y148001D01*
X146430Y148071D01*
X146289Y148156D01*
X146106Y148240D01*
X145894Y148311D01*
X145655Y148367D01*
X145373Y148381D01*
X145246D01*
X145105Y148353D01*
X144922Y148325D01*
X144724Y148268D01*
X144513Y148184D01*
X144302Y148057D01*
X144118Y147902D01*
X144104Y147874D01*
X144048Y147817D01*
X143977Y147705D01*
X143879Y147535D01*
X143794Y147324D01*
X143709Y147056D01*
X143639Y146732D01*
X143611Y146549D01*
X143597Y146351D01*
X141116Y146591D01*
Y146619D01*
X141130Y146676D01*
X141144Y146788D01*
X141172Y146929D01*
X141200Y147098D01*
X141242Y147296D01*
X141299Y147507D01*
X141369Y147733D01*
X141454Y147972D01*
X141552Y148212D01*
X141665Y148466D01*
X141792Y148705D01*
X141933Y148945D01*
X142102Y149171D01*
X142286Y149368D01*
X142497Y149551D01*
X142511Y149565D01*
X142553Y149594D01*
X142624Y149636D01*
X142709Y149692D01*
X142821Y149763D01*
X142962Y149833D01*
X143117Y149918D01*
X143301Y150002D01*
X143512Y150087D01*
X143723Y150171D01*
X143963Y150242D01*
X144231Y150312D01*
X144499Y150369D01*
X144795Y150411D01*
X145105Y150439D01*
X145429Y150454D01*
X145612D01*
X145753Y150439D01*
D02*
G37*
G36*
X135646D02*
X135801Y150425D01*
X135984Y150397D01*
X136196Y150369D01*
X136421Y150327D01*
X136661Y150270D01*
X136901Y150200D01*
X137154Y150115D01*
X137408Y150016D01*
X137648Y149890D01*
X137887Y149749D01*
X138127Y149594D01*
X138338Y149410D01*
X138352Y149396D01*
X138381Y149368D01*
X138437Y149298D01*
X138508Y149227D01*
X138592Y149128D01*
X138691Y149002D01*
X138790Y148861D01*
X138902Y148691D01*
X139001Y148522D01*
X139100Y148325D01*
X139198Y148113D01*
X139283Y147888D01*
X139353Y147634D01*
X139410Y147380D01*
X139438Y147113D01*
X139452Y146831D01*
Y146816D01*
Y146788D01*
Y146746D01*
Y146676D01*
X139438Y146605D01*
Y146506D01*
X139410Y146295D01*
X139368Y146027D01*
X139311Y145745D01*
X139241Y145449D01*
X139128Y145153D01*
Y145139D01*
X139114Y145125D01*
X139100Y145068D01*
X139072Y145012D01*
X139029Y144942D01*
X138987Y144857D01*
X138888Y144646D01*
X138747Y144406D01*
X138578Y144124D01*
X138367Y143814D01*
X138127Y143490D01*
X138099Y143461D01*
X138042Y143377D01*
X137915Y143250D01*
X137760Y143067D01*
X137648Y142954D01*
X137535Y142827D01*
X137394Y142700D01*
X137253Y142545D01*
X137084Y142390D01*
X136901Y142207D01*
X136703Y142023D01*
X136492Y141826D01*
X136478Y141812D01*
X136435Y141784D01*
X136379Y141727D01*
X136308Y141657D01*
X136210Y141572D01*
X136097Y141474D01*
X135857Y141248D01*
X135604Y141009D01*
X135364Y140769D01*
X135251Y140656D01*
X135153Y140557D01*
X135068Y140459D01*
X134997Y140388D01*
X134983Y140374D01*
X134941Y140332D01*
X134885Y140261D01*
X134814Y140177D01*
X134744Y140064D01*
X134659Y139951D01*
X134490Y139712D01*
X139452D01*
Y137400D01*
X130712D01*
Y137414D01*
X130726Y137456D01*
Y137527D01*
X130740Y137625D01*
X130768Y137738D01*
X130796Y137879D01*
X130825Y138034D01*
X130867Y138203D01*
X130980Y138584D01*
X131135Y139007D01*
X131318Y139444D01*
X131558Y139881D01*
X131572Y139895D01*
X131586Y139937D01*
X131642Y140008D01*
X131699Y140092D01*
X131783Y140205D01*
X131896Y140360D01*
X132023Y140515D01*
X132178Y140712D01*
X132347Y140924D01*
X132559Y141150D01*
X132784Y141417D01*
X133038Y141685D01*
X133320Y141981D01*
X133644Y142305D01*
X133982Y142644D01*
X134363Y142996D01*
X134377Y143010D01*
X134434Y143067D01*
X134518Y143151D01*
X134631Y143250D01*
X134772Y143377D01*
X134913Y143518D01*
X135082Y143687D01*
X135251Y143856D01*
X135618Y144208D01*
X135956Y144561D01*
X136097Y144716D01*
X136238Y144871D01*
X136351Y145012D01*
X136435Y145125D01*
Y145139D01*
X136463Y145153D01*
X136478Y145195D01*
X136520Y145252D01*
X136604Y145407D01*
X136703Y145604D01*
X136788Y145830D01*
X136872Y146083D01*
X136929Y146365D01*
X136957Y146647D01*
Y146661D01*
Y146690D01*
Y146732D01*
Y146788D01*
X136929Y146929D01*
X136901Y147127D01*
X136844Y147324D01*
X136774Y147535D01*
X136661Y147747D01*
X136506Y147930D01*
X136492Y147944D01*
X136421Y148001D01*
X136323Y148071D01*
X136182Y148156D01*
X135998Y148240D01*
X135787Y148311D01*
X135547Y148367D01*
X135265Y148381D01*
X135138D01*
X134997Y148353D01*
X134814Y148325D01*
X134617Y148268D01*
X134405Y148184D01*
X134194Y148057D01*
X134011Y147902D01*
X133997Y147874D01*
X133940Y147817D01*
X133870Y147705D01*
X133771Y147535D01*
X133686Y147324D01*
X133602Y147056D01*
X133531Y146732D01*
X133503Y146549D01*
X133489Y146351D01*
X131008Y146591D01*
Y146619D01*
X131022Y146676D01*
X131036Y146788D01*
X131064Y146929D01*
X131093Y147098D01*
X131135Y147296D01*
X131191Y147507D01*
X131262Y147733D01*
X131346Y147972D01*
X131445Y148212D01*
X131558Y148466D01*
X131685Y148705D01*
X131826Y148945D01*
X131995Y149171D01*
X132178Y149368D01*
X132389Y149551D01*
X132404Y149565D01*
X132446Y149594D01*
X132516Y149636D01*
X132601Y149692D01*
X132714Y149763D01*
X132855Y149833D01*
X133010Y149918D01*
X133193Y150002D01*
X133405Y150087D01*
X133616Y150171D01*
X133856Y150242D01*
X134123Y150312D01*
X134391Y150369D01*
X134687Y150411D01*
X134997Y150439D01*
X135322Y150454D01*
X135505D01*
X135646Y150439D01*
D02*
G37*
G36*
X115431D02*
X115586Y150425D01*
X115769Y150397D01*
X115981Y150369D01*
X116206Y150327D01*
X116446Y150270D01*
X116685Y150200D01*
X116939Y150115D01*
X117193Y150016D01*
X117433Y149890D01*
X117672Y149749D01*
X117912Y149594D01*
X118123Y149410D01*
X118137Y149396D01*
X118166Y149368D01*
X118222Y149298D01*
X118293Y149227D01*
X118377Y149128D01*
X118476Y149002D01*
X118574Y148861D01*
X118687Y148691D01*
X118786Y148522D01*
X118885Y148325D01*
X118983Y148113D01*
X119068Y147888D01*
X119138Y147634D01*
X119195Y147380D01*
X119223Y147113D01*
X119237Y146831D01*
Y146816D01*
Y146788D01*
Y146746D01*
Y146676D01*
X119223Y146605D01*
Y146506D01*
X119195Y146295D01*
X119152Y146027D01*
X119096Y145745D01*
X119025Y145449D01*
X118913Y145153D01*
Y145139D01*
X118899Y145125D01*
X118885Y145068D01*
X118856Y145012D01*
X118814Y144942D01*
X118772Y144857D01*
X118673Y144646D01*
X118532Y144406D01*
X118363Y144124D01*
X118152Y143814D01*
X117912Y143490D01*
X117884Y143461D01*
X117827Y143377D01*
X117700Y143250D01*
X117545Y143067D01*
X117433Y142954D01*
X117320Y142827D01*
X117179Y142700D01*
X117038Y142545D01*
X116869Y142390D01*
X116685Y142207D01*
X116488Y142023D01*
X116277Y141826D01*
X116263Y141812D01*
X116220Y141784D01*
X116164Y141727D01*
X116093Y141657D01*
X115995Y141572D01*
X115882Y141474D01*
X115642Y141248D01*
X115388Y141009D01*
X115149Y140769D01*
X115036Y140656D01*
X114937Y140557D01*
X114853Y140459D01*
X114782Y140388D01*
X114768Y140374D01*
X114726Y140332D01*
X114670Y140261D01*
X114599Y140177D01*
X114529Y140064D01*
X114444Y139951D01*
X114275Y139712D01*
X119237D01*
Y137400D01*
X110497D01*
Y137414D01*
X110511Y137456D01*
Y137527D01*
X110525Y137625D01*
X110553Y137738D01*
X110581Y137879D01*
X110610Y138034D01*
X110652Y138203D01*
X110765Y138584D01*
X110920Y139007D01*
X111103Y139444D01*
X111343Y139881D01*
X111357Y139895D01*
X111371Y139937D01*
X111427Y140008D01*
X111484Y140092D01*
X111568Y140205D01*
X111681Y140360D01*
X111808Y140515D01*
X111963Y140712D01*
X112132Y140924D01*
X112344Y141150D01*
X112569Y141417D01*
X112823Y141685D01*
X113105Y141981D01*
X113429Y142305D01*
X113767Y142644D01*
X114148Y142996D01*
X114162Y143010D01*
X114219Y143067D01*
X114303Y143151D01*
X114416Y143250D01*
X114557Y143377D01*
X114698Y143518D01*
X114867Y143687D01*
X115036Y143856D01*
X115403Y144208D01*
X115741Y144561D01*
X115882Y144716D01*
X116023Y144871D01*
X116136Y145012D01*
X116220Y145125D01*
Y145139D01*
X116248Y145153D01*
X116263Y145195D01*
X116305Y145252D01*
X116389Y145407D01*
X116488Y145604D01*
X116573Y145830D01*
X116657Y146083D01*
X116714Y146365D01*
X116742Y146647D01*
Y146661D01*
Y146690D01*
Y146732D01*
Y146788D01*
X116714Y146929D01*
X116685Y147127D01*
X116629Y147324D01*
X116559Y147535D01*
X116446Y147747D01*
X116291Y147930D01*
X116277Y147944D01*
X116206Y148001D01*
X116108Y148071D01*
X115967Y148156D01*
X115783Y148240D01*
X115572Y148311D01*
X115332Y148367D01*
X115050Y148381D01*
X114923D01*
X114782Y148353D01*
X114599Y148325D01*
X114402Y148268D01*
X114190Y148184D01*
X113979Y148057D01*
X113796Y147902D01*
X113781Y147874D01*
X113725Y147817D01*
X113655Y147705D01*
X113556Y147535D01*
X113471Y147324D01*
X113387Y147056D01*
X113316Y146732D01*
X113288Y146549D01*
X113274Y146351D01*
X110793Y146591D01*
Y146619D01*
X110807Y146676D01*
X110821Y146788D01*
X110849Y146929D01*
X110878Y147098D01*
X110920Y147296D01*
X110976Y147507D01*
X111047Y147733D01*
X111131Y147972D01*
X111230Y148212D01*
X111343Y148466D01*
X111470Y148705D01*
X111610Y148945D01*
X111780Y149171D01*
X111963Y149368D01*
X112174Y149551D01*
X112189Y149565D01*
X112231Y149594D01*
X112301Y149636D01*
X112386Y149692D01*
X112499Y149763D01*
X112640Y149833D01*
X112795Y149918D01*
X112978Y150002D01*
X113189Y150087D01*
X113401Y150171D01*
X113640Y150242D01*
X113908Y150312D01*
X114176Y150369D01*
X114472Y150411D01*
X114782Y150439D01*
X115107Y150454D01*
X115290D01*
X115431Y150439D01*
D02*
G37*
G36*
X90169D02*
X90324Y150425D01*
X90507Y150397D01*
X90719Y150369D01*
X90944Y150327D01*
X91184Y150270D01*
X91424Y150200D01*
X91677Y150115D01*
X91931Y150016D01*
X92171Y149890D01*
X92410Y149749D01*
X92650Y149594D01*
X92861Y149410D01*
X92876Y149396D01*
X92904Y149368D01*
X92960Y149298D01*
X93031Y149227D01*
X93115Y149128D01*
X93214Y149002D01*
X93313Y148861D01*
X93425Y148691D01*
X93524Y148522D01*
X93623Y148325D01*
X93721Y148113D01*
X93806Y147888D01*
X93876Y147634D01*
X93933Y147380D01*
X93961Y147113D01*
X93975Y146831D01*
Y146816D01*
Y146788D01*
Y146746D01*
Y146676D01*
X93961Y146605D01*
Y146506D01*
X93933Y146295D01*
X93891Y146027D01*
X93834Y145745D01*
X93764Y145449D01*
X93651Y145153D01*
Y145139D01*
X93637Y145125D01*
X93623Y145068D01*
X93595Y145012D01*
X93552Y144942D01*
X93510Y144857D01*
X93411Y144646D01*
X93270Y144406D01*
X93101Y144124D01*
X92890Y143814D01*
X92650Y143490D01*
X92622Y143461D01*
X92565Y143377D01*
X92439Y143250D01*
X92283Y143067D01*
X92171Y142954D01*
X92058Y142827D01*
X91917Y142700D01*
X91776Y142545D01*
X91607Y142390D01*
X91424Y142207D01*
X91226Y142023D01*
X91015Y141826D01*
X91001Y141812D01*
X90958Y141784D01*
X90902Y141727D01*
X90831Y141657D01*
X90733Y141572D01*
X90620Y141474D01*
X90380Y141248D01*
X90127Y141009D01*
X89887Y140769D01*
X89774Y140656D01*
X89676Y140557D01*
X89591Y140459D01*
X89521Y140388D01*
X89506Y140374D01*
X89464Y140332D01*
X89408Y140261D01*
X89337Y140177D01*
X89267Y140064D01*
X89182Y139951D01*
X89013Y139712D01*
X93975D01*
Y137400D01*
X85235D01*
Y137414D01*
X85249Y137456D01*
Y137527D01*
X85263Y137625D01*
X85291Y137738D01*
X85320Y137879D01*
X85348Y138034D01*
X85390Y138203D01*
X85503Y138584D01*
X85658Y139007D01*
X85841Y139444D01*
X86081Y139881D01*
X86095Y139895D01*
X86109Y139937D01*
X86165Y140008D01*
X86222Y140092D01*
X86306Y140205D01*
X86419Y140360D01*
X86546Y140515D01*
X86701Y140712D01*
X86870Y140924D01*
X87082Y141150D01*
X87307Y141417D01*
X87561Y141685D01*
X87843Y141981D01*
X88167Y142305D01*
X88505Y142644D01*
X88886Y142996D01*
X88900Y143010D01*
X88957Y143067D01*
X89041Y143151D01*
X89154Y143250D01*
X89295Y143377D01*
X89436Y143518D01*
X89605Y143687D01*
X89774Y143856D01*
X90141Y144208D01*
X90479Y144561D01*
X90620Y144716D01*
X90761Y144871D01*
X90874Y145012D01*
X90958Y145125D01*
Y145139D01*
X90987Y145153D01*
X91001Y145195D01*
X91043Y145252D01*
X91128Y145407D01*
X91226Y145604D01*
X91311Y145830D01*
X91395Y146083D01*
X91452Y146365D01*
X91480Y146647D01*
Y146661D01*
Y146690D01*
Y146732D01*
Y146788D01*
X91452Y146929D01*
X91424Y147127D01*
X91367Y147324D01*
X91297Y147535D01*
X91184Y147747D01*
X91029Y147930D01*
X91015Y147944D01*
X90944Y148001D01*
X90846Y148071D01*
X90705Y148156D01*
X90521Y148240D01*
X90310Y148311D01*
X90070Y148367D01*
X89788Y148381D01*
X89662D01*
X89521Y148353D01*
X89337Y148325D01*
X89140Y148268D01*
X88928Y148184D01*
X88717Y148057D01*
X88534Y147902D01*
X88520Y147874D01*
X88463Y147817D01*
X88393Y147705D01*
X88294Y147535D01*
X88209Y147324D01*
X88125Y147056D01*
X88054Y146732D01*
X88026Y146549D01*
X88012Y146351D01*
X85531Y146591D01*
Y146619D01*
X85545Y146676D01*
X85559Y146788D01*
X85588Y146929D01*
X85616Y147098D01*
X85658Y147296D01*
X85714Y147507D01*
X85785Y147733D01*
X85869Y147972D01*
X85968Y148212D01*
X86081Y148466D01*
X86208Y148705D01*
X86349Y148945D01*
X86518Y149171D01*
X86701Y149368D01*
X86913Y149551D01*
X86927Y149565D01*
X86969Y149594D01*
X87039Y149636D01*
X87124Y149692D01*
X87237Y149763D01*
X87378Y149833D01*
X87533Y149918D01*
X87716Y150002D01*
X87928Y150087D01*
X88139Y150171D01*
X88379Y150242D01*
X88646Y150312D01*
X88914Y150369D01*
X89210Y150411D01*
X89521Y150439D01*
X89845Y150454D01*
X90028D01*
X90169Y150439D01*
D02*
G37*
G36*
X76777Y137400D02*
X74282D01*
Y146774D01*
X74268Y146760D01*
X74225Y146718D01*
X74141Y146647D01*
X74042Y146563D01*
X73915Y146464D01*
X73746Y146337D01*
X73577Y146196D01*
X73365Y146055D01*
X73140Y145900D01*
X72900Y145745D01*
X72632Y145590D01*
X72350Y145435D01*
X72054Y145280D01*
X71730Y145139D01*
X71406Y145012D01*
X71068Y144885D01*
Y147155D01*
X71082D01*
X71110Y147169D01*
X71166Y147183D01*
X71237Y147211D01*
X71335Y147254D01*
X71434Y147296D01*
X71561Y147352D01*
X71702Y147423D01*
X72012Y147578D01*
X72365Y147789D01*
X72759Y148043D01*
X73182Y148353D01*
X73196Y148367D01*
X73239Y148395D01*
X73295Y148438D01*
X73365Y148508D01*
X73464Y148593D01*
X73563Y148705D01*
X73675Y148818D01*
X73802Y148959D01*
X74070Y149269D01*
X74324Y149622D01*
X74564Y150016D01*
X74662Y150228D01*
X74747Y150454D01*
X76777D01*
Y137400D01*
D02*
G37*
G36*
X66669D02*
X64174D01*
Y146774D01*
X64160Y146760D01*
X64118Y146718D01*
X64033Y146647D01*
X63934Y146563D01*
X63808Y146464D01*
X63638Y146337D01*
X63469Y146196D01*
X63258Y146055D01*
X63032Y145900D01*
X62793Y145745D01*
X62525Y145590D01*
X62243Y145435D01*
X61947Y145280D01*
X61623Y145139D01*
X61298Y145012D01*
X60960Y144885D01*
Y147155D01*
X60974D01*
X61002Y147169D01*
X61059Y147183D01*
X61129Y147211D01*
X61228Y147254D01*
X61326Y147296D01*
X61453Y147352D01*
X61594Y147423D01*
X61905Y147578D01*
X62257Y147789D01*
X62652Y148043D01*
X63074Y148353D01*
X63089Y148367D01*
X63131Y148395D01*
X63187Y148438D01*
X63258Y148508D01*
X63356Y148593D01*
X63455Y148705D01*
X63568Y148818D01*
X63695Y148959D01*
X63963Y149269D01*
X64216Y149622D01*
X64456Y150016D01*
X64555Y150228D01*
X64639Y150454D01*
X66669D01*
Y137400D01*
D02*
G37*
G36*
X106803Y137174D02*
X104971D01*
X108185Y150623D01*
X110060D01*
X106803Y137174D01*
D02*
G37*
G36*
X81542D02*
X79709D01*
X82923Y150623D01*
X84798D01*
X81542Y137174D01*
D02*
G37*
G36*
X125313Y150439D02*
X125440D01*
X125595Y150411D01*
X125778Y150383D01*
X125990Y150341D01*
X126215Y150284D01*
X126441Y150214D01*
X126680Y150129D01*
X126934Y150016D01*
X127174Y149890D01*
X127413Y149734D01*
X127653Y149551D01*
X127879Y149340D01*
X128090Y149100D01*
X128104Y149086D01*
X128146Y149030D01*
X128203Y148931D01*
X128287Y148790D01*
X128386Y148621D01*
X128499Y148395D01*
X128611Y148142D01*
X128724Y147831D01*
X128837Y147493D01*
X128964Y147098D01*
X129063Y146661D01*
X129161Y146182D01*
X129246Y145660D01*
X129302Y145083D01*
X129345Y144462D01*
X129359Y143800D01*
Y143786D01*
Y143757D01*
Y143701D01*
Y143645D01*
Y143546D01*
X129345Y143447D01*
Y143335D01*
Y143194D01*
X129316Y142898D01*
X129288Y142545D01*
X129246Y142164D01*
X129204Y141756D01*
X129133Y141319D01*
X129049Y140882D01*
X128936Y140430D01*
X128823Y139993D01*
X128668Y139585D01*
X128499Y139176D01*
X128301Y138809D01*
X128076Y138485D01*
X128062Y138471D01*
X128034Y138429D01*
X127963Y138358D01*
X127879Y138274D01*
X127780Y138175D01*
X127639Y138062D01*
X127484Y137949D01*
X127315Y137823D01*
X127117Y137696D01*
X126892Y137583D01*
X126652Y137470D01*
X126384Y137372D01*
X126102Y137287D01*
X125792Y137216D01*
X125468Y137174D01*
X125129Y137160D01*
X125045D01*
X124946Y137174D01*
X124819Y137188D01*
X124650Y137202D01*
X124467Y137231D01*
X124256Y137287D01*
X124030Y137343D01*
X123790Y137414D01*
X123551Y137512D01*
X123297Y137639D01*
X123043Y137766D01*
X122789Y137935D01*
X122536Y138133D01*
X122296Y138358D01*
X122071Y138612D01*
X122056Y138626D01*
X122028Y138682D01*
X121958Y138767D01*
X121887Y138894D01*
X121803Y139063D01*
X121704Y139275D01*
X121605Y139528D01*
X121493Y139810D01*
X121380Y140149D01*
X121281Y140529D01*
X121182Y140952D01*
X121098Y141431D01*
X121027Y141953D01*
X120971Y142531D01*
X120929Y143151D01*
X120914Y143828D01*
Y143842D01*
Y143870D01*
Y143927D01*
Y143983D01*
Y144082D01*
X120929Y144180D01*
Y144293D01*
Y144420D01*
X120957Y144730D01*
X120985Y145068D01*
X121027Y145449D01*
X121070Y145858D01*
X121140Y146295D01*
X121225Y146732D01*
X121323Y147169D01*
X121450Y147606D01*
X121591Y148029D01*
X121760Y148424D01*
X121958Y148790D01*
X122183Y149114D01*
X122197Y149128D01*
X122240Y149171D01*
X122296Y149241D01*
X122381Y149326D01*
X122493Y149424D01*
X122620Y149537D01*
X122775Y149664D01*
X122944Y149791D01*
X123142Y149904D01*
X123367Y150031D01*
X123607Y150143D01*
X123875Y150242D01*
X124157Y150327D01*
X124467Y150397D01*
X124791Y150439D01*
X125129Y150454D01*
X125214D01*
X125313Y150439D01*
D02*
G37*
G36*
X100051D02*
X100178D01*
X100333Y150411D01*
X100516Y150383D01*
X100728Y150341D01*
X100953Y150284D01*
X101179Y150214D01*
X101418Y150129D01*
X101672Y150016D01*
X101912Y149890D01*
X102151Y149734D01*
X102391Y149551D01*
X102617Y149340D01*
X102828Y149100D01*
X102842Y149086D01*
X102885Y149030D01*
X102941Y148931D01*
X103025Y148790D01*
X103124Y148621D01*
X103237Y148395D01*
X103350Y148142D01*
X103462Y147831D01*
X103575Y147493D01*
X103702Y147098D01*
X103801Y146661D01*
X103899Y146182D01*
X103984Y145660D01*
X104040Y145083D01*
X104083Y144462D01*
X104097Y143800D01*
Y143786D01*
Y143757D01*
Y143701D01*
Y143645D01*
Y143546D01*
X104083Y143447D01*
Y143335D01*
Y143194D01*
X104054Y142898D01*
X104026Y142545D01*
X103984Y142164D01*
X103942Y141756D01*
X103871Y141319D01*
X103787Y140882D01*
X103674Y140430D01*
X103561Y139993D01*
X103406Y139585D01*
X103237Y139176D01*
X103040Y138809D01*
X102814Y138485D01*
X102800Y138471D01*
X102772Y138429D01*
X102701Y138358D01*
X102617Y138274D01*
X102518Y138175D01*
X102377Y138062D01*
X102222Y137949D01*
X102053Y137823D01*
X101855Y137696D01*
X101630Y137583D01*
X101390Y137470D01*
X101122Y137372D01*
X100840Y137287D01*
X100530Y137216D01*
X100206Y137174D01*
X99868Y137160D01*
X99783D01*
X99684Y137174D01*
X99558Y137188D01*
X99388Y137202D01*
X99205Y137231D01*
X98994Y137287D01*
X98768Y137343D01*
X98528Y137414D01*
X98289Y137512D01*
X98035Y137639D01*
X97781Y137766D01*
X97528Y137935D01*
X97274Y138133D01*
X97034Y138358D01*
X96809Y138612D01*
X96795Y138626D01*
X96766Y138682D01*
X96696Y138767D01*
X96625Y138894D01*
X96541Y139063D01*
X96442Y139275D01*
X96343Y139528D01*
X96231Y139810D01*
X96118Y140149D01*
X96019Y140529D01*
X95921Y140952D01*
X95836Y141431D01*
X95765Y141953D01*
X95709Y142531D01*
X95667Y143151D01*
X95653Y143828D01*
Y143842D01*
Y143870D01*
Y143927D01*
Y143983D01*
Y144082D01*
X95667Y144180D01*
Y144293D01*
Y144420D01*
X95695Y144730D01*
X95723Y145068D01*
X95765Y145449D01*
X95808Y145858D01*
X95878Y146295D01*
X95963Y146732D01*
X96061Y147169D01*
X96188Y147606D01*
X96329Y148029D01*
X96498Y148424D01*
X96696Y148790D01*
X96921Y149114D01*
X96936Y149128D01*
X96978Y149171D01*
X97034Y149241D01*
X97119Y149326D01*
X97232Y149424D01*
X97359Y149537D01*
X97514Y149664D01*
X97683Y149791D01*
X97880Y149904D01*
X98106Y150031D01*
X98345Y150143D01*
X98613Y150242D01*
X98895Y150327D01*
X99205Y150397D01*
X99529Y150439D01*
X99868Y150454D01*
X99952D01*
X100051Y150439D01*
D02*
G37*
G36*
X161184Y112625D02*
Y112604D01*
Y112551D01*
Y112456D01*
Y112340D01*
Y112192D01*
X161174Y112033D01*
Y111854D01*
X161163Y111653D01*
X161142Y111251D01*
X161110Y110839D01*
X161089Y110639D01*
X161068Y110459D01*
X161047Y110290D01*
X161015Y110142D01*
Y110131D01*
X161005Y110110D01*
X160994Y110068D01*
X160984Y110026D01*
X160962Y109962D01*
X160941Y109888D01*
X160878Y109719D01*
X160804Y109519D01*
X160698Y109318D01*
X160571Y109117D01*
X160424Y108916D01*
Y108906D01*
X160402Y108895D01*
X160350Y108832D01*
X160254Y108747D01*
X160128Y108631D01*
X159959Y108504D01*
X159768Y108377D01*
X159536Y108240D01*
X159282Y108124D01*
X159272D01*
X159251Y108113D01*
X159208Y108092D01*
X159156Y108082D01*
X159082Y108060D01*
X158997Y108029D01*
X158891Y108008D01*
X158775Y107976D01*
X158648Y107944D01*
X158511Y107923D01*
X158352Y107902D01*
X158194Y107870D01*
X158014Y107860D01*
X157824Y107838D01*
X157624Y107828D01*
X157275D01*
X157180Y107838D01*
X157063D01*
X156937Y107849D01*
X156789Y107860D01*
X156630Y107870D01*
X156281Y107902D01*
X155933Y107965D01*
X155595Y108039D01*
X155436Y108092D01*
X155299Y108145D01*
X155288D01*
X155267Y108155D01*
X155225Y108177D01*
X155183Y108208D01*
X155119Y108240D01*
X155045Y108272D01*
X154887Y108377D01*
X154707Y108494D01*
X154517Y108631D01*
X154327Y108800D01*
X154158Y108980D01*
Y108990D01*
X154136Y109001D01*
X154115Y109032D01*
X154094Y109075D01*
X154020Y109170D01*
X153936Y109307D01*
X153841Y109476D01*
X153746Y109656D01*
X153672Y109857D01*
X153608Y110068D01*
Y110079D01*
X153598Y110110D01*
X153587Y110153D01*
X153576Y110226D01*
X153566Y110311D01*
X153545Y110417D01*
X153534Y110543D01*
X153513Y110691D01*
X153492Y110850D01*
X153481Y111040D01*
X153460Y111241D01*
X153450Y111463D01*
X153439Y111706D01*
X153429Y111959D01*
X153418Y112245D01*
Y112541D01*
Y117760D01*
X155383D01*
Y112467D01*
Y112456D01*
Y112414D01*
Y112350D01*
Y112266D01*
Y112160D01*
Y112044D01*
X155394Y111917D01*
Y111790D01*
Y111505D01*
X155415Y111241D01*
Y111114D01*
X155426Y111008D01*
X155436Y110913D01*
X155447Y110829D01*
Y110818D01*
X155457Y110808D01*
Y110776D01*
X155478Y110734D01*
X155510Y110618D01*
X155574Y110480D01*
X155647Y110332D01*
X155753Y110174D01*
X155891Y110015D01*
X156049Y109867D01*
X156060D01*
X156070Y109857D01*
X156102Y109836D01*
X156134Y109814D01*
X156239Y109751D01*
X156387Y109688D01*
X156577Y109624D01*
X156799Y109561D01*
X157053Y109519D01*
X157349Y109508D01*
X157433D01*
X157486Y109519D01*
X157560D01*
X157634Y109529D01*
X157824Y109550D01*
X158025Y109593D01*
X158236Y109656D01*
X158437Y109730D01*
X158617Y109846D01*
X158638Y109857D01*
X158680Y109909D01*
X158754Y109984D01*
X158839Y110079D01*
X158923Y110195D01*
X159008Y110343D01*
X159082Y110501D01*
X159124Y110681D01*
Y110691D01*
Y110702D01*
X159135Y110734D01*
Y110776D01*
X159145Y110839D01*
X159156Y110903D01*
X159166Y110987D01*
X159177Y111082D01*
Y111188D01*
X159187Y111315D01*
X159198Y111452D01*
X159208Y111600D01*
Y111769D01*
X159219Y111949D01*
Y112139D01*
Y112350D01*
Y117760D01*
X161184D01*
Y112625D01*
D02*
G37*
G36*
X166309Y117781D02*
X166425Y117771D01*
X166563Y117750D01*
X166721Y117729D01*
X166890Y117697D01*
X167070Y117655D01*
X167249Y117602D01*
X167440Y117538D01*
X167630Y117465D01*
X167810Y117369D01*
X167989Y117264D01*
X168169Y117148D01*
X168327Y117010D01*
X168338Y117000D01*
X168359Y116979D01*
X168401Y116926D01*
X168454Y116873D01*
X168517Y116799D01*
X168591Y116704D01*
X168665Y116598D01*
X168750Y116471D01*
X168824Y116344D01*
X168898Y116196D01*
X168972Y116038D01*
X169035Y115869D01*
X169088Y115679D01*
X169130Y115489D01*
X169151Y115288D01*
X169162Y115077D01*
Y115066D01*
Y115045D01*
Y115013D01*
Y114960D01*
X169151Y114907D01*
Y114833D01*
X169130Y114675D01*
X169099Y114474D01*
X169056Y114263D01*
X169004Y114041D01*
X168919Y113819D01*
Y113808D01*
X168908Y113798D01*
X168898Y113756D01*
X168877Y113713D01*
X168845Y113661D01*
X168813Y113597D01*
X168739Y113439D01*
X168634Y113259D01*
X168507Y113048D01*
X168348Y112815D01*
X168169Y112572D01*
X168148Y112551D01*
X168105Y112488D01*
X168010Y112393D01*
X167894Y112255D01*
X167810Y112171D01*
X167725Y112076D01*
X167619Y111980D01*
X167514Y111864D01*
X167387Y111748D01*
X167249Y111611D01*
X167101Y111473D01*
X166943Y111325D01*
X166933Y111315D01*
X166901Y111294D01*
X166859Y111251D01*
X166806Y111199D01*
X166732Y111135D01*
X166647Y111061D01*
X166467Y110892D01*
X166277Y110713D01*
X166098Y110533D01*
X166013Y110448D01*
X165939Y110374D01*
X165876Y110301D01*
X165823Y110248D01*
X165812Y110237D01*
X165781Y110205D01*
X165739Y110153D01*
X165686Y110089D01*
X165633Y110005D01*
X165569Y109920D01*
X165443Y109740D01*
X169162D01*
Y108008D01*
X162611D01*
Y108018D01*
X162621Y108050D01*
Y108103D01*
X162632Y108177D01*
X162653Y108261D01*
X162674Y108367D01*
X162695Y108483D01*
X162727Y108610D01*
X162812Y108895D01*
X162928Y109212D01*
X163065Y109540D01*
X163245Y109867D01*
X163255Y109878D01*
X163266Y109909D01*
X163308Y109962D01*
X163350Y110026D01*
X163414Y110110D01*
X163498Y110226D01*
X163594Y110343D01*
X163710Y110491D01*
X163836Y110649D01*
X163995Y110818D01*
X164164Y111019D01*
X164354Y111220D01*
X164566Y111442D01*
X164809Y111685D01*
X165062Y111938D01*
X165347Y112202D01*
X165358Y112213D01*
X165400Y112255D01*
X165464Y112319D01*
X165548Y112393D01*
X165654Y112488D01*
X165760Y112593D01*
X165886Y112720D01*
X166013Y112847D01*
X166288Y113111D01*
X166542Y113375D01*
X166647Y113491D01*
X166753Y113608D01*
X166837Y113713D01*
X166901Y113798D01*
Y113808D01*
X166922Y113819D01*
X166933Y113851D01*
X166964Y113893D01*
X167028Y114009D01*
X167101Y114157D01*
X167165Y114326D01*
X167228Y114516D01*
X167271Y114728D01*
X167292Y114939D01*
Y114950D01*
Y114971D01*
Y115002D01*
Y115045D01*
X167271Y115150D01*
X167249Y115298D01*
X167207Y115446D01*
X167154Y115605D01*
X167070Y115763D01*
X166954Y115901D01*
X166943Y115911D01*
X166890Y115954D01*
X166816Y116006D01*
X166711Y116070D01*
X166573Y116133D01*
X166415Y116186D01*
X166235Y116228D01*
X166024Y116239D01*
X165929D01*
X165823Y116218D01*
X165686Y116196D01*
X165538Y116154D01*
X165379Y116091D01*
X165221Y115996D01*
X165083Y115879D01*
X165073Y115858D01*
X165030Y115816D01*
X164978Y115732D01*
X164904Y115605D01*
X164840Y115446D01*
X164777Y115246D01*
X164724Y115002D01*
X164703Y114865D01*
X164692Y114717D01*
X162833Y114897D01*
Y114918D01*
X162843Y114960D01*
X162854Y115045D01*
X162875Y115150D01*
X162896Y115277D01*
X162928Y115425D01*
X162970Y115584D01*
X163023Y115753D01*
X163086Y115932D01*
X163160Y116112D01*
X163245Y116302D01*
X163340Y116482D01*
X163445Y116662D01*
X163572Y116831D01*
X163710Y116979D01*
X163868Y117116D01*
X163879Y117126D01*
X163911Y117148D01*
X163963Y117179D01*
X164027Y117221D01*
X164111Y117274D01*
X164217Y117327D01*
X164333Y117390D01*
X164471Y117454D01*
X164629Y117517D01*
X164788Y117581D01*
X164967Y117634D01*
X165168Y117686D01*
X165369Y117729D01*
X165590Y117760D01*
X165823Y117781D01*
X166066Y117792D01*
X166203D01*
X166309Y117781D01*
D02*
G37*
G36*
X112420Y111575D02*
Y111554D01*
Y111501D01*
Y111406D01*
Y111290D01*
Y111142D01*
X112410Y110983D01*
Y110804D01*
X112399Y110603D01*
X112378Y110202D01*
X112346Y109789D01*
X112325Y109589D01*
X112304Y109409D01*
X112283Y109240D01*
X112251Y109092D01*
Y109081D01*
X112241Y109060D01*
X112230Y109018D01*
X112220Y108976D01*
X112198Y108912D01*
X112177Y108838D01*
X112114Y108669D01*
X112040Y108469D01*
X111934Y108268D01*
X111807Y108067D01*
X111660Y107866D01*
Y107856D01*
X111638Y107845D01*
X111586Y107782D01*
X111491Y107697D01*
X111364Y107581D01*
X111195Y107454D01*
X111004Y107327D01*
X110772Y107190D01*
X110518Y107074D01*
X110508D01*
X110487Y107063D01*
X110444Y107042D01*
X110392Y107031D01*
X110318Y107010D01*
X110233Y106979D01*
X110127Y106958D01*
X110011Y106926D01*
X109885Y106894D01*
X109747Y106873D01*
X109589Y106852D01*
X109430Y106820D01*
X109250Y106810D01*
X109060Y106789D01*
X108860Y106778D01*
X108511D01*
X108416Y106789D01*
X108300D01*
X108173Y106799D01*
X108025Y106810D01*
X107866Y106820D01*
X107518Y106852D01*
X107169Y106915D01*
X106831Y106989D01*
X106672Y107042D01*
X106535Y107095D01*
X106524D01*
X106503Y107106D01*
X106461Y107127D01*
X106419Y107158D01*
X106355Y107190D01*
X106281Y107222D01*
X106123Y107327D01*
X105943Y107444D01*
X105753Y107581D01*
X105563Y107750D01*
X105394Y107930D01*
Y107940D01*
X105373Y107951D01*
X105351Y107983D01*
X105330Y108025D01*
X105256Y108120D01*
X105172Y108257D01*
X105077Y108426D01*
X104982Y108606D01*
X104908Y108807D01*
X104844Y109018D01*
Y109029D01*
X104834Y109060D01*
X104823Y109103D01*
X104813Y109177D01*
X104802Y109261D01*
X104781Y109367D01*
X104770Y109494D01*
X104749Y109641D01*
X104728Y109800D01*
X104718Y109990D01*
X104696Y110191D01*
X104686Y110413D01*
X104675Y110656D01*
X104665Y110909D01*
X104654Y111195D01*
Y111491D01*
Y116710D01*
X106619D01*
Y111417D01*
Y111406D01*
Y111364D01*
Y111300D01*
Y111216D01*
Y111110D01*
Y110994D01*
X106630Y110867D01*
Y110740D01*
Y110455D01*
X106651Y110191D01*
Y110064D01*
X106662Y109958D01*
X106672Y109863D01*
X106683Y109779D01*
Y109768D01*
X106693Y109758D01*
Y109726D01*
X106714Y109684D01*
X106746Y109567D01*
X106810Y109430D01*
X106884Y109282D01*
X106989Y109124D01*
X107127Y108965D01*
X107285Y108817D01*
X107296D01*
X107306Y108807D01*
X107338Y108786D01*
X107370Y108764D01*
X107475Y108701D01*
X107623Y108638D01*
X107813Y108574D01*
X108035Y108511D01*
X108289Y108469D01*
X108585Y108458D01*
X108669D01*
X108722Y108469D01*
X108796D01*
X108870Y108479D01*
X109060Y108500D01*
X109261Y108542D01*
X109472Y108606D01*
X109673Y108680D01*
X109853Y108796D01*
X109874Y108807D01*
X109916Y108860D01*
X109990Y108933D01*
X110075Y109029D01*
X110159Y109145D01*
X110244Y109293D01*
X110318Y109451D01*
X110360Y109631D01*
Y109641D01*
Y109652D01*
X110371Y109684D01*
Y109726D01*
X110381Y109789D01*
X110392Y109853D01*
X110402Y109937D01*
X110413Y110032D01*
Y110138D01*
X110423Y110265D01*
X110434Y110402D01*
X110444Y110550D01*
Y110719D01*
X110455Y110899D01*
Y111089D01*
Y111300D01*
Y116710D01*
X112420D01*
Y111575D01*
D02*
G37*
G36*
X118866Y106958D02*
X116996D01*
Y113984D01*
X116985Y113974D01*
X116953Y113942D01*
X116890Y113889D01*
X116816Y113826D01*
X116721Y113752D01*
X116594Y113657D01*
X116467Y113551D01*
X116309Y113445D01*
X116140Y113329D01*
X115960Y113213D01*
X115759Y113097D01*
X115548Y112980D01*
X115326Y112864D01*
X115083Y112759D01*
X114840Y112663D01*
X114586Y112568D01*
Y114270D01*
X114597D01*
X114618Y114280D01*
X114661Y114291D01*
X114713Y114312D01*
X114787Y114344D01*
X114861Y114375D01*
X114956Y114417D01*
X115062Y114470D01*
X115295Y114586D01*
X115559Y114745D01*
X115855Y114935D01*
X116172Y115168D01*
X116182Y115178D01*
X116214Y115199D01*
X116256Y115231D01*
X116309Y115284D01*
X116383Y115347D01*
X116457Y115432D01*
X116541Y115516D01*
X116636Y115622D01*
X116837Y115855D01*
X117027Y116119D01*
X117207Y116414D01*
X117281Y116573D01*
X117344Y116742D01*
X118866D01*
Y106958D01*
D02*
G37*
G36*
X92853Y123653D02*
X93022Y123643D01*
X93223Y123622D01*
X93465Y123601D01*
X93730Y123558D01*
X94004Y123505D01*
X94311Y123442D01*
X94617Y123357D01*
X94934Y123262D01*
X95251Y123135D01*
X95558Y122998D01*
X95854Y122829D01*
X96139Y122639D01*
X96403Y122417D01*
X96413Y122407D01*
X96466Y122354D01*
X96530Y122290D01*
X96614Y122185D01*
X96720Y122058D01*
X96836Y121910D01*
X96952Y121730D01*
X97079Y121529D01*
X97206Y121308D01*
X97333Y121054D01*
X97438Y120790D01*
X97544Y120494D01*
X97629Y120177D01*
X97703Y119839D01*
X97745Y119480D01*
X97755Y119110D01*
Y119025D01*
X97745Y118941D01*
X97734Y118814D01*
X97724Y118666D01*
X97703Y118486D01*
X97671Y118286D01*
X97618Y118074D01*
X97565Y117852D01*
X97491Y117620D01*
X97407Y117377D01*
X97301Y117134D01*
X97185Y116891D01*
X97037Y116648D01*
X96878Y116426D01*
X96688Y116204D01*
X96678Y116193D01*
X96657Y116172D01*
X96625Y116141D01*
X96572Y116098D01*
X96509Y116035D01*
X96435Y115971D01*
X96340Y115908D01*
X96234Y115824D01*
X96107Y115750D01*
X95980Y115665D01*
X95832Y115581D01*
X95674Y115496D01*
X95494Y115422D01*
X95315Y115337D01*
X95114Y115264D01*
X94902Y115200D01*
X94438Y117144D01*
X94448D01*
X94469Y117155D01*
X94512Y117165D01*
X94564Y117176D01*
X94628Y117197D01*
X94702Y117229D01*
X94871Y117303D01*
X95061Y117398D01*
X95262Y117525D01*
X95452Y117683D01*
X95632Y117873D01*
X95642Y117884D01*
X95653Y117895D01*
X95674Y117926D01*
X95706Y117969D01*
X95737Y118021D01*
X95769Y118085D01*
X95854Y118243D01*
X95938Y118444D01*
X96001Y118666D01*
X96054Y118919D01*
X96075Y119205D01*
Y119311D01*
X96065Y119384D01*
X96054Y119480D01*
X96033Y119585D01*
X96012Y119701D01*
X95980Y119828D01*
X95938Y119966D01*
X95885Y120114D01*
X95822Y120261D01*
X95748Y120409D01*
X95653Y120557D01*
X95547Y120695D01*
X95431Y120843D01*
X95294Y120969D01*
X95283Y120980D01*
X95262Y121001D01*
X95209Y121033D01*
X95146Y121075D01*
X95061Y121128D01*
X94955Y121181D01*
X94829Y121244D01*
X94681Y121297D01*
X94522Y121360D01*
X94332Y121424D01*
X94131Y121477D01*
X93899Y121529D01*
X93645Y121572D01*
X93381Y121603D01*
X93085Y121624D01*
X92768Y121635D01*
X92747D01*
X92684D01*
X92589D01*
X92472Y121624D01*
X92314Y121614D01*
X92145Y121603D01*
X91954Y121582D01*
X91743Y121551D01*
X91310Y121477D01*
X91099Y121424D01*
X90877Y121360D01*
X90665Y121286D01*
X90475Y121191D01*
X90296Y121096D01*
X90137Y120980D01*
X90126Y120969D01*
X90105Y120948D01*
X90063Y120906D01*
X90010Y120864D01*
X89958Y120790D01*
X89894Y120716D01*
X89820Y120621D01*
X89746Y120515D01*
X89672Y120399D01*
X89598Y120261D01*
X89535Y120124D01*
X89482Y119966D01*
X89429Y119807D01*
X89387Y119628D01*
X89366Y119437D01*
X89355Y119247D01*
Y119173D01*
X89366Y119120D01*
Y119046D01*
X89387Y118972D01*
X89419Y118782D01*
X89482Y118571D01*
X89566Y118349D01*
X89693Y118127D01*
X89767Y118011D01*
X89852Y117905D01*
X89862Y117895D01*
X89873Y117884D01*
X89905Y117852D01*
X89947Y117810D01*
X90000Y117768D01*
X90063Y117715D01*
X90148Y117652D01*
X90232Y117588D01*
X90338Y117525D01*
X90454Y117451D01*
X90581Y117387D01*
X90729Y117313D01*
X90877Y117250D01*
X91046Y117187D01*
X91236Y117134D01*
X91426Y117081D01*
X90835Y115169D01*
X90813D01*
X90760Y115190D01*
X90687Y115211D01*
X90570Y115253D01*
X90443Y115306D01*
X90285Y115359D01*
X90116Y115433D01*
X89936Y115517D01*
X89746Y115612D01*
X89545Y115718D01*
X89345Y115845D01*
X89154Y115971D01*
X88954Y116119D01*
X88774Y116278D01*
X88605Y116447D01*
X88447Y116637D01*
X88436Y116648D01*
X88415Y116679D01*
X88372Y116743D01*
X88330Y116817D01*
X88267Y116923D01*
X88203Y117039D01*
X88130Y117176D01*
X88066Y117345D01*
X87992Y117514D01*
X87918Y117715D01*
X87855Y117926D01*
X87791Y118159D01*
X87749Y118402D01*
X87707Y118666D01*
X87686Y118941D01*
X87675Y119226D01*
Y119311D01*
X87686Y119416D01*
X87696Y119553D01*
X87717Y119712D01*
X87749Y119902D01*
X87781Y120124D01*
X87844Y120357D01*
X87908Y120600D01*
X88003Y120864D01*
X88108Y121128D01*
X88235Y121392D01*
X88383Y121656D01*
X88563Y121920D01*
X88763Y122174D01*
X88996Y122417D01*
X89007Y122428D01*
X89059Y122470D01*
X89133Y122533D01*
X89239Y122607D01*
X89376Y122702D01*
X89535Y122808D01*
X89725Y122924D01*
X89947Y123040D01*
X90190Y123157D01*
X90465Y123273D01*
X90760Y123379D01*
X91088Y123474D01*
X91437Y123548D01*
X91807Y123611D01*
X92198Y123653D01*
X92620Y123664D01*
X92631D01*
X92652D01*
X92684D01*
X92726D01*
X92789D01*
X92853Y123653D01*
D02*
G37*
G36*
X90644Y112157D02*
X90634D01*
X90613D01*
X90581Y112147D01*
X90528Y112136D01*
X90401Y112115D01*
X90253Y112062D01*
X90074Y112009D01*
X89905Y111925D01*
X89725Y111819D01*
X89577Y111692D01*
X89566Y111671D01*
X89524Y111629D01*
X89461Y111544D01*
X89397Y111439D01*
X89334Y111301D01*
X89271Y111143D01*
X89228Y110963D01*
X89218Y110773D01*
Y110720D01*
X89228Y110678D01*
X89239Y110572D01*
X89271Y110435D01*
X89324Y110276D01*
X89397Y110118D01*
X89503Y109949D01*
X89651Y109790D01*
X89672Y109769D01*
X89736Y109727D01*
X89831Y109663D01*
X89968Y109589D01*
X90137Y109515D01*
X90338Y109452D01*
X90570Y109410D01*
X90835Y109389D01*
X90845D01*
X90866D01*
X90898D01*
X90951Y109399D01*
X91014D01*
X91077Y109410D01*
X91236Y109431D01*
X91416Y109484D01*
X91606Y109547D01*
X91785Y109642D01*
X91954Y109769D01*
X91976Y109790D01*
X92018Y109832D01*
X92092Y109917D01*
X92166Y110023D01*
X92240Y110160D01*
X92314Y110318D01*
X92356Y110498D01*
X92377Y110699D01*
Y110762D01*
X92367Y110836D01*
X92356Y110942D01*
X92346Y111069D01*
X92314Y111206D01*
X92282Y111375D01*
X92229Y111555D01*
X93751Y111354D01*
Y111227D01*
X93761Y111164D01*
Y111090D01*
X93783Y110921D01*
X93814Y110731D01*
X93878Y110540D01*
X93962Y110361D01*
X94068Y110192D01*
X94089Y110171D01*
X94131Y110128D01*
X94205Y110065D01*
X94311Y109980D01*
X94448Y109906D01*
X94607Y109843D01*
X94786Y109801D01*
X94998Y109780D01*
X95008D01*
X95019D01*
X95082D01*
X95167Y109790D01*
X95283Y109811D01*
X95399Y109854D01*
X95536Y109906D01*
X95663Y109980D01*
X95779Y110076D01*
X95790Y110086D01*
X95822Y110128D01*
X95875Y110192D01*
X95927Y110287D01*
X95980Y110403D01*
X96033Y110530D01*
X96065Y110688D01*
X96075Y110868D01*
Y110953D01*
X96054Y111037D01*
X96033Y111153D01*
X95991Y111280D01*
X95938Y111417D01*
X95854Y111555D01*
X95737Y111692D01*
X95727Y111703D01*
X95674Y111745D01*
X95600Y111798D01*
X95494Y111872D01*
X95357Y111946D01*
X95198Y112009D01*
X94998Y112062D01*
X94776Y112104D01*
X95061Y113827D01*
X95072D01*
X95103Y113816D01*
X95146Y113805D01*
X95209Y113795D01*
X95283Y113774D01*
X95367Y113753D01*
X95568Y113689D01*
X95801Y113615D01*
X96033Y113520D01*
X96266Y113414D01*
X96477Y113288D01*
X96488D01*
X96498Y113266D01*
X96561Y113224D01*
X96667Y113140D01*
X96783Y113024D01*
X96921Y112886D01*
X97058Y112717D01*
X97195Y112516D01*
X97322Y112284D01*
Y112273D01*
X97333Y112252D01*
X97354Y112220D01*
X97375Y112168D01*
X97396Y112104D01*
X97417Y112030D01*
X97449Y111946D01*
X97481Y111851D01*
X97534Y111639D01*
X97586Y111386D01*
X97618Y111111D01*
X97629Y110815D01*
Y110752D01*
X97618Y110678D01*
Y110583D01*
X97597Y110466D01*
X97586Y110329D01*
X97555Y110181D01*
X97523Y110023D01*
X97470Y109843D01*
X97417Y109663D01*
X97343Y109484D01*
X97259Y109304D01*
X97153Y109114D01*
X97037Y108934D01*
X96900Y108765D01*
X96741Y108607D01*
X96730Y108596D01*
X96709Y108575D01*
X96667Y108543D01*
X96614Y108501D01*
X96551Y108448D01*
X96466Y108385D01*
X96371Y108321D01*
X96266Y108258D01*
X96033Y108131D01*
X95758Y108015D01*
X95611Y107973D01*
X95452Y107941D01*
X95294Y107920D01*
X95124Y107909D01*
X95114D01*
X95072D01*
X94998Y107920D01*
X94913Y107930D01*
X94807Y107952D01*
X94681Y107983D01*
X94533Y108026D01*
X94385Y108089D01*
X94226Y108163D01*
X94057Y108247D01*
X93888Y108364D01*
X93719Y108501D01*
X93550Y108660D01*
X93381Y108850D01*
X93223Y109072D01*
X93075Y109315D01*
Y109304D01*
X93064Y109272D01*
X93053Y109230D01*
X93032Y109177D01*
X93011Y109103D01*
X92979Y109019D01*
X92906Y108839D01*
X92800Y108617D01*
X92652Y108395D01*
X92483Y108184D01*
X92377Y108078D01*
X92261Y107983D01*
X92250Y107973D01*
X92229Y107962D01*
X92198Y107941D01*
X92155Y107899D01*
X92092Y107867D01*
X92018Y107825D01*
X91933Y107772D01*
X91838Y107730D01*
X91616Y107635D01*
X91363Y107550D01*
X91067Y107497D01*
X90908Y107487D01*
X90750Y107476D01*
X90739D01*
X90697D01*
X90623Y107487D01*
X90539D01*
X90422Y107508D01*
X90296Y107529D01*
X90158Y107550D01*
X90000Y107592D01*
X89831Y107645D01*
X89651Y107709D01*
X89471Y107783D01*
X89292Y107878D01*
X89102Y107983D01*
X88922Y108110D01*
X88742Y108247D01*
X88563Y108417D01*
X88552Y108427D01*
X88520Y108459D01*
X88478Y108512D01*
X88425Y108586D01*
X88351Y108681D01*
X88277Y108786D01*
X88193Y108913D01*
X88119Y109061D01*
X88034Y109220D01*
X87950Y109399D01*
X87876Y109600D01*
X87802Y109801D01*
X87749Y110023D01*
X87707Y110255D01*
X87675Y110509D01*
X87664Y110762D01*
Y110826D01*
X87675Y110889D01*
Y110984D01*
X87686Y111090D01*
X87707Y111227D01*
X87728Y111375D01*
X87760Y111534D01*
X87802Y111703D01*
X87855Y111882D01*
X87908Y112062D01*
X87982Y112242D01*
X88077Y112432D01*
X88172Y112611D01*
X88288Y112791D01*
X88425Y112960D01*
X88436Y112971D01*
X88457Y113002D01*
X88499Y113045D01*
X88563Y113097D01*
X88637Y113161D01*
X88732Y113245D01*
X88837Y113319D01*
X88964Y113414D01*
X89102Y113499D01*
X89249Y113583D01*
X89408Y113668D01*
X89588Y113753D01*
X89778Y113816D01*
X89979Y113879D01*
X90201Y113932D01*
X90422Y113964D01*
X90644Y112157D01*
D02*
G37*
G36*
X148381Y57475D02*
X141355D01*
X141365Y57464D01*
X141397Y57432D01*
X141450Y57369D01*
X141513Y57295D01*
X141587Y57200D01*
X141682Y57073D01*
X141788Y56946D01*
X141893Y56788D01*
X142010Y56619D01*
X142126Y56439D01*
X142242Y56238D01*
X142358Y56027D01*
X142474Y55805D01*
X142580Y55562D01*
X142675Y55319D01*
X142770Y55066D01*
X141069D01*
Y55076D01*
X141059Y55097D01*
X141048Y55139D01*
X141027Y55192D01*
X140995Y55266D01*
X140963Y55340D01*
X140921Y55435D01*
X140868Y55541D01*
X140752Y55774D01*
X140594Y56038D01*
X140403Y56333D01*
X140171Y56651D01*
X140161Y56661D01*
X140139Y56693D01*
X140108Y56735D01*
X140055Y56788D01*
X139991Y56862D01*
X139907Y56936D01*
X139822Y57020D01*
X139717Y57116D01*
X139484Y57316D01*
X139220Y57506D01*
X138924Y57686D01*
X138766Y57760D01*
X138597Y57823D01*
Y59345D01*
X148381D01*
Y57475D01*
D02*
G37*
G36*
X145465Y53269D02*
X145539Y53248D01*
X145655Y53206D01*
X145782Y53153D01*
X145940Y53100D01*
X146109Y53026D01*
X146289Y52942D01*
X146479Y52847D01*
X146680Y52741D01*
X146881Y52614D01*
X147071Y52487D01*
X147272Y52339D01*
X147451Y52181D01*
X147620Y52012D01*
X147779Y51822D01*
X147789Y51811D01*
X147810Y51779D01*
X147853Y51716D01*
X147895Y51642D01*
X147958Y51536D01*
X148022Y51420D01*
X148096Y51283D01*
X148159Y51114D01*
X148233Y50945D01*
X148307Y50744D01*
X148371Y50533D01*
X148434Y50300D01*
X148476Y50057D01*
X148518Y49793D01*
X148540Y49518D01*
X148550Y49233D01*
Y49148D01*
X148540Y49043D01*
X148529Y48905D01*
X148508Y48747D01*
X148476Y48557D01*
X148444Y48335D01*
X148381Y48102D01*
X148318Y47859D01*
X148223Y47595D01*
X148117Y47331D01*
X147990Y47067D01*
X147842Y46803D01*
X147663Y46539D01*
X147462Y46285D01*
X147229Y46042D01*
X147219Y46031D01*
X147166Y45989D01*
X147092Y45926D01*
X146986Y45852D01*
X146849Y45757D01*
X146691Y45651D01*
X146500Y45535D01*
X146278Y45419D01*
X146035Y45302D01*
X145761Y45186D01*
X145465Y45080D01*
X145137Y44985D01*
X144789Y44911D01*
X144419Y44848D01*
X144028Y44806D01*
X143605Y44795D01*
X143595D01*
X143573D01*
X143542D01*
X143499D01*
X143436D01*
X143373Y44806D01*
X143204Y44816D01*
X143003Y44837D01*
X142760Y44858D01*
X142496Y44901D01*
X142221Y44953D01*
X141915Y45017D01*
X141608Y45101D01*
X141291Y45197D01*
X140974Y45323D01*
X140668Y45461D01*
X140372Y45630D01*
X140086Y45820D01*
X139822Y46042D01*
X139812Y46052D01*
X139759Y46105D01*
X139696Y46169D01*
X139611Y46274D01*
X139505Y46401D01*
X139389Y46549D01*
X139273Y46729D01*
X139146Y46929D01*
X139019Y47151D01*
X138892Y47405D01*
X138787Y47669D01*
X138681Y47965D01*
X138597Y48282D01*
X138523Y48620D01*
X138480Y48979D01*
X138470Y49349D01*
Y49434D01*
X138480Y49518D01*
X138491Y49645D01*
X138502Y49793D01*
X138523Y49973D01*
X138554Y50173D01*
X138607Y50385D01*
X138660Y50607D01*
X138734Y50839D01*
X138819Y51082D01*
X138924Y51325D01*
X139040Y51568D01*
X139188Y51811D01*
X139347Y52033D01*
X139537Y52255D01*
X139548Y52266D01*
X139569Y52287D01*
X139600Y52318D01*
X139653Y52361D01*
X139717Y52424D01*
X139791Y52487D01*
X139886Y52551D01*
X139991Y52635D01*
X140118Y52709D01*
X140245Y52794D01*
X140393Y52878D01*
X140551Y52963D01*
X140731Y53037D01*
X140911Y53121D01*
X141111Y53195D01*
X141323Y53259D01*
X141788Y51315D01*
X141777D01*
X141756Y51304D01*
X141714Y51293D01*
X141661Y51283D01*
X141597Y51262D01*
X141524Y51230D01*
X141355Y51156D01*
X141164Y51061D01*
X140963Y50934D01*
X140773Y50776D01*
X140594Y50585D01*
X140583Y50575D01*
X140573Y50564D01*
X140551Y50533D01*
X140520Y50490D01*
X140488Y50437D01*
X140456Y50374D01*
X140372Y50216D01*
X140287Y50015D01*
X140224Y49793D01*
X140171Y49539D01*
X140150Y49254D01*
Y49148D01*
X140161Y49074D01*
X140171Y48979D01*
X140192Y48874D01*
X140213Y48757D01*
X140245Y48631D01*
X140287Y48493D01*
X140340Y48345D01*
X140403Y48197D01*
X140477Y48050D01*
X140573Y47902D01*
X140678Y47764D01*
X140794Y47616D01*
X140932Y47490D01*
X140942Y47479D01*
X140963Y47458D01*
X141016Y47426D01*
X141080Y47384D01*
X141164Y47331D01*
X141270Y47278D01*
X141397Y47215D01*
X141545Y47162D01*
X141703Y47098D01*
X141893Y47035D01*
X142094Y46982D01*
X142327Y46929D01*
X142580Y46887D01*
X142844Y46856D01*
X143140Y46834D01*
X143457Y46824D01*
X143478D01*
X143542D01*
X143637D01*
X143753Y46834D01*
X143912Y46845D01*
X144081Y46856D01*
X144271Y46877D01*
X144482Y46908D01*
X144915Y46982D01*
X145127Y47035D01*
X145349Y47098D01*
X145560Y47172D01*
X145750Y47268D01*
X145930Y47363D01*
X146088Y47479D01*
X146099Y47490D01*
X146120Y47511D01*
X146162Y47553D01*
X146215Y47595D01*
X146268Y47669D01*
X146331Y47743D01*
X146405Y47838D01*
X146479Y47944D01*
X146553Y48060D01*
X146627Y48197D01*
X146691Y48335D01*
X146743Y48493D01*
X146796Y48652D01*
X146838Y48831D01*
X146860Y49022D01*
X146870Y49212D01*
Y49286D01*
X146860Y49339D01*
Y49413D01*
X146838Y49486D01*
X146807Y49677D01*
X146743Y49888D01*
X146659Y50110D01*
X146532Y50332D01*
X146458Y50448D01*
X146374Y50554D01*
X146363Y50564D01*
X146352Y50575D01*
X146321Y50607D01*
X146278Y50649D01*
X146226Y50691D01*
X146162Y50744D01*
X146078Y50807D01*
X145993Y50871D01*
X145887Y50934D01*
X145771Y51008D01*
X145644Y51072D01*
X145497Y51145D01*
X145349Y51209D01*
X145180Y51272D01*
X144989Y51325D01*
X144799Y51378D01*
X145391Y53290D01*
X145412D01*
X145465Y53269D01*
D02*
G37*
G36*
X143647Y123601D02*
X143816Y123590D01*
X144017Y123569D01*
X144260Y123548D01*
X144524Y123505D01*
X144799Y123453D01*
X145105Y123389D01*
X145412Y123305D01*
X145729Y123209D01*
X146046Y123083D01*
X146352Y122945D01*
X146648Y122776D01*
X146933Y122586D01*
X147198Y122364D01*
X147208Y122354D01*
X147261Y122301D01*
X147324Y122237D01*
X147409Y122132D01*
X147515Y122005D01*
X147631Y121857D01*
X147747Y121677D01*
X147874Y121477D01*
X148001Y121255D01*
X148127Y121001D01*
X148233Y120737D01*
X148339Y120441D01*
X148423Y120124D01*
X148497Y119786D01*
X148540Y119427D01*
X148550Y119057D01*
Y118972D01*
X148540Y118888D01*
X148529Y118761D01*
X148518Y118613D01*
X148497Y118434D01*
X148466Y118233D01*
X148413Y118021D01*
X148360Y117800D01*
X148286Y117567D01*
X148202Y117324D01*
X148096Y117081D01*
X147980Y116838D01*
X147832Y116595D01*
X147673Y116373D01*
X147483Y116151D01*
X147472Y116141D01*
X147451Y116119D01*
X147420Y116088D01*
X147367Y116046D01*
X147303Y115982D01*
X147229Y115919D01*
X147134Y115855D01*
X147029Y115771D01*
X146902Y115697D01*
X146775Y115612D01*
X146627Y115528D01*
X146469Y115443D01*
X146289Y115369D01*
X146109Y115285D01*
X145909Y115211D01*
X145697Y115147D01*
X145232Y117092D01*
X145243D01*
X145264Y117102D01*
X145306Y117113D01*
X145359Y117123D01*
X145422Y117144D01*
X145497Y117176D01*
X145666Y117250D01*
X145856Y117345D01*
X146056Y117472D01*
X146247Y117630D01*
X146426Y117821D01*
X146437Y117831D01*
X146447Y117842D01*
X146469Y117873D01*
X146500Y117916D01*
X146532Y117969D01*
X146564Y118032D01*
X146648Y118190D01*
X146733Y118391D01*
X146796Y118613D01*
X146849Y118867D01*
X146870Y119152D01*
Y119258D01*
X146860Y119332D01*
X146849Y119427D01*
X146828Y119532D01*
X146807Y119649D01*
X146775Y119775D01*
X146733Y119913D01*
X146680Y120061D01*
X146616Y120209D01*
X146543Y120357D01*
X146447Y120505D01*
X146342Y120642D01*
X146226Y120790D01*
X146088Y120917D01*
X146078Y120927D01*
X146056Y120948D01*
X146004Y120980D01*
X145940Y121022D01*
X145856Y121075D01*
X145750Y121128D01*
X145623Y121191D01*
X145475Y121244D01*
X145317Y121308D01*
X145127Y121371D01*
X144926Y121424D01*
X144693Y121477D01*
X144440Y121519D01*
X144176Y121551D01*
X143880Y121572D01*
X143563Y121582D01*
X143542D01*
X143478D01*
X143383D01*
X143267Y121572D01*
X143109Y121561D01*
X142939Y121551D01*
X142749Y121529D01*
X142538Y121498D01*
X142105Y121424D01*
X141893Y121371D01*
X141671Y121308D01*
X141460Y121234D01*
X141270Y121138D01*
X141090Y121043D01*
X140932Y120927D01*
X140921Y120917D01*
X140900Y120896D01*
X140858Y120853D01*
X140805Y120811D01*
X140752Y120737D01*
X140689Y120663D01*
X140615Y120568D01*
X140541Y120462D01*
X140467Y120346D01*
X140393Y120209D01*
X140330Y120071D01*
X140277Y119913D01*
X140224Y119754D01*
X140182Y119575D01*
X140161Y119384D01*
X140150Y119194D01*
Y119120D01*
X140161Y119067D01*
Y118994D01*
X140182Y118919D01*
X140213Y118729D01*
X140277Y118518D01*
X140361Y118296D01*
X140488Y118074D01*
X140562Y117958D01*
X140646Y117852D01*
X140657Y117842D01*
X140668Y117831D01*
X140699Y117800D01*
X140742Y117757D01*
X140794Y117715D01*
X140858Y117662D01*
X140942Y117599D01*
X141027Y117535D01*
X141133Y117472D01*
X141249Y117398D01*
X141376Y117335D01*
X141524Y117261D01*
X141671Y117197D01*
X141840Y117134D01*
X142031Y117081D01*
X142221Y117028D01*
X141629Y115116D01*
X141608D01*
X141555Y115137D01*
X141481Y115158D01*
X141365Y115200D01*
X141238Y115253D01*
X141080Y115306D01*
X140911Y115380D01*
X140731Y115464D01*
X140541Y115559D01*
X140340Y115665D01*
X140139Y115792D01*
X139949Y115919D01*
X139748Y116067D01*
X139569Y116225D01*
X139400Y116394D01*
X139241Y116584D01*
X139231Y116595D01*
X139209Y116627D01*
X139167Y116690D01*
X139125Y116764D01*
X139061Y116870D01*
X138998Y116986D01*
X138924Y117123D01*
X138861Y117292D01*
X138787Y117461D01*
X138713Y117662D01*
X138650Y117873D01*
X138586Y118106D01*
X138544Y118349D01*
X138502Y118613D01*
X138480Y118888D01*
X138470Y119173D01*
Y119258D01*
X138480Y119363D01*
X138491Y119501D01*
X138512Y119659D01*
X138544Y119849D01*
X138575Y120071D01*
X138639Y120304D01*
X138702Y120547D01*
X138797Y120811D01*
X138903Y121075D01*
X139030Y121339D01*
X139178Y121603D01*
X139357Y121868D01*
X139558Y122121D01*
X139791Y122364D01*
X139801Y122375D01*
X139854Y122417D01*
X139928Y122480D01*
X140034Y122554D01*
X140171Y122649D01*
X140330Y122755D01*
X140520Y122871D01*
X140742Y122988D01*
X140985Y123104D01*
X141259Y123220D01*
X141555Y123326D01*
X141883Y123421D01*
X142232Y123495D01*
X142601Y123558D01*
X142992Y123601D01*
X143415Y123611D01*
X143426D01*
X143447D01*
X143478D01*
X143521D01*
X143584D01*
X143647Y123601D01*
D02*
G37*
G36*
X138681Y114070D02*
X138734D01*
X138808Y114059D01*
X138892Y114038D01*
X138998Y114017D01*
X139114Y113996D01*
X139241Y113964D01*
X139527Y113879D01*
X139844Y113763D01*
X140171Y113626D01*
X140499Y113446D01*
X140509Y113436D01*
X140541Y113425D01*
X140594Y113383D01*
X140657Y113341D01*
X140742Y113277D01*
X140858Y113193D01*
X140974Y113097D01*
X141122Y112981D01*
X141280Y112854D01*
X141450Y112696D01*
X141650Y112527D01*
X141851Y112337D01*
X142073Y112125D01*
X142316Y111882D01*
X142570Y111629D01*
X142834Y111343D01*
X142844Y111333D01*
X142887Y111291D01*
X142950Y111227D01*
X143024Y111143D01*
X143119Y111037D01*
X143225Y110931D01*
X143351Y110805D01*
X143478Y110678D01*
X143743Y110403D01*
X144007Y110149D01*
X144123Y110044D01*
X144239Y109938D01*
X144345Y109854D01*
X144429Y109790D01*
X144440D01*
X144450Y109769D01*
X144482Y109759D01*
X144524Y109727D01*
X144641Y109663D01*
X144789Y109589D01*
X144958Y109526D01*
X145148Y109463D01*
X145359Y109420D01*
X145570Y109399D01*
X145581D01*
X145602D01*
X145634D01*
X145676D01*
X145782Y109420D01*
X145930Y109441D01*
X146078Y109484D01*
X146236Y109537D01*
X146395Y109621D01*
X146532Y109737D01*
X146543Y109748D01*
X146585Y109801D01*
X146638Y109875D01*
X146701Y109980D01*
X146764Y110118D01*
X146817Y110276D01*
X146860Y110456D01*
X146870Y110667D01*
Y110762D01*
X146849Y110868D01*
X146828Y111005D01*
X146786Y111153D01*
X146722Y111312D01*
X146627Y111470D01*
X146511Y111608D01*
X146490Y111618D01*
X146447Y111660D01*
X146363Y111713D01*
X146236Y111787D01*
X146078Y111851D01*
X145877Y111914D01*
X145634Y111967D01*
X145497Y111988D01*
X145349Y111999D01*
X145528Y113858D01*
X145549D01*
X145592Y113848D01*
X145676Y113837D01*
X145782Y113816D01*
X145909Y113795D01*
X146056Y113763D01*
X146215Y113721D01*
X146384Y113668D01*
X146564Y113605D01*
X146743Y113531D01*
X146933Y113446D01*
X147113Y113351D01*
X147293Y113245D01*
X147462Y113119D01*
X147610Y112981D01*
X147747Y112823D01*
X147758Y112812D01*
X147779Y112781D01*
X147810Y112728D01*
X147853Y112664D01*
X147906Y112580D01*
X147958Y112474D01*
X148022Y112358D01*
X148085Y112220D01*
X148149Y112062D01*
X148212Y111903D01*
X148265Y111724D01*
X148318Y111523D01*
X148360Y111322D01*
X148392Y111100D01*
X148413Y110868D01*
X148423Y110625D01*
Y110488D01*
X148413Y110382D01*
X148402Y110266D01*
X148381Y110128D01*
X148360Y109970D01*
X148328Y109801D01*
X148286Y109621D01*
X148233Y109441D01*
X148170Y109251D01*
X148096Y109061D01*
X148001Y108882D01*
X147895Y108702D01*
X147779Y108522D01*
X147641Y108364D01*
X147631Y108353D01*
X147610Y108332D01*
X147557Y108290D01*
X147504Y108237D01*
X147430Y108174D01*
X147335Y108100D01*
X147229Y108026D01*
X147103Y107941D01*
X146976Y107867D01*
X146828Y107793D01*
X146669Y107719D01*
X146500Y107656D01*
X146310Y107603D01*
X146120Y107561D01*
X145919Y107540D01*
X145708Y107529D01*
X145697D01*
X145676D01*
X145644D01*
X145592D01*
X145539Y107540D01*
X145465D01*
X145306Y107561D01*
X145105Y107592D01*
X144894Y107635D01*
X144672Y107688D01*
X144450Y107772D01*
X144440D01*
X144429Y107783D01*
X144387Y107793D01*
X144345Y107814D01*
X144292Y107846D01*
X144228Y107878D01*
X144070Y107952D01*
X143890Y108057D01*
X143679Y108184D01*
X143447Y108343D01*
X143204Y108522D01*
X143182Y108543D01*
X143119Y108586D01*
X143024Y108681D01*
X142887Y108797D01*
X142802Y108882D01*
X142707Y108966D01*
X142612Y109072D01*
X142496Y109177D01*
X142379Y109304D01*
X142242Y109441D01*
X142105Y109589D01*
X141957Y109748D01*
X141946Y109759D01*
X141925Y109790D01*
X141883Y109832D01*
X141830Y109885D01*
X141767Y109959D01*
X141693Y110044D01*
X141524Y110223D01*
X141344Y110414D01*
X141164Y110593D01*
X141080Y110678D01*
X141006Y110752D01*
X140932Y110815D01*
X140879Y110868D01*
X140868Y110878D01*
X140837Y110910D01*
X140784Y110953D01*
X140721Y111005D01*
X140636Y111058D01*
X140551Y111122D01*
X140372Y111248D01*
Y107529D01*
X138639D01*
Y114080D01*
X138650D01*
X138681Y114070D01*
D02*
G37*
%LPC*%
G36*
X174140Y165459D02*
X174055D01*
X173999Y165445D01*
X173858Y165431D01*
X173660Y165388D01*
X173449Y165318D01*
X173223Y165205D01*
X173012Y165050D01*
X172899Y164965D01*
X172801Y164853D01*
X172772Y164825D01*
X172716Y164740D01*
X172631Y164613D01*
X172533Y164430D01*
X172434Y164204D01*
X172349Y163922D01*
X172293Y163612D01*
X172279Y163246D01*
X176000D01*
Y163260D01*
Y163288D01*
Y163344D01*
X175986Y163429D01*
X175972Y163514D01*
X175958Y163612D01*
X175916Y163852D01*
X175846Y164120D01*
X175747Y164387D01*
X175620Y164655D01*
X175437Y164881D01*
X175408Y164909D01*
X175338Y164965D01*
X175225Y165064D01*
X175070Y165177D01*
X174887Y165276D01*
X174661Y165374D01*
X174408Y165431D01*
X174140Y165459D01*
D02*
G37*
G36*
X150908D02*
X150823D01*
X150767Y165445D01*
X150626Y165431D01*
X150429Y165388D01*
X150217Y165318D01*
X149992Y165205D01*
X149780Y165050D01*
X149667Y164965D01*
X149569Y164853D01*
X149541Y164825D01*
X149484Y164740D01*
X149399Y164613D01*
X149301Y164430D01*
X149202Y164204D01*
X149118Y163922D01*
X149061Y163612D01*
X149047Y163246D01*
X152769D01*
Y163260D01*
Y163288D01*
Y163344D01*
X152755Y163429D01*
X152740Y163514D01*
X152726Y163612D01*
X152684Y163852D01*
X152614Y164120D01*
X152515Y164387D01*
X152388Y164655D01*
X152205Y164881D01*
X152177Y164909D01*
X152106Y164965D01*
X151993Y165064D01*
X151838Y165177D01*
X151655Y165276D01*
X151430Y165374D01*
X151176Y165431D01*
X150908Y165459D01*
D02*
G37*
G36*
X58294Y117313D02*
X58118D01*
X57589Y117268D01*
X57016Y117092D01*
X56972D01*
X56883Y117004D01*
X56707Y116563D01*
X58162D01*
X58294Y116519D01*
X58471Y116475D01*
X58735Y116431D01*
X59353Y116210D01*
X60014Y115902D01*
X60191Y115857D01*
X60235Y116078D01*
Y116122D01*
Y116210D01*
Y116343D01*
X60014Y116519D01*
X59970Y116563D01*
X59926Y116607D01*
X59794Y116739D01*
X59617Y116828D01*
X59176Y117092D01*
X58912Y117180D01*
X58603Y117268D01*
X58471D01*
X58294Y117313D01*
D02*
G37*
G36*
X57809Y116078D02*
X56839D01*
X56531Y116034D01*
X56487D01*
X56398Y115990D01*
X56266Y115946D01*
X56090Y115902D01*
X55649Y115769D01*
X55208Y115593D01*
X54811Y115240D01*
X54899Y115152D01*
X54943Y115108D01*
X55120Y115020D01*
X55296Y114888D01*
X55561Y114711D01*
X55605Y114667D01*
X55781Y114579D01*
X55913Y114446D01*
X56090Y114270D01*
X56134Y114226D01*
X56178Y114182D01*
X56222Y114050D01*
X56266Y113961D01*
Y113917D01*
X56178Y113873D01*
X56090Y113785D01*
X55825D01*
X55781Y113873D01*
Y113741D01*
Y113697D01*
X55737Y113565D01*
X55693Y113344D01*
X55605Y113035D01*
X55384Y112418D01*
X54987Y111757D01*
X54899Y111669D01*
X54679Y111448D01*
X54370Y111184D01*
X53973Y110875D01*
X53312Y110566D01*
X53268D01*
X53312Y110478D01*
X53444Y110390D01*
X53797Y110258D01*
X53841D01*
X53885Y110213D01*
X53973Y110169D01*
X54061Y110125D01*
X54106Y110081D01*
Y109993D01*
X54061Y109861D01*
X54017Y109773D01*
X53929Y109684D01*
X53620D01*
X53576Y109728D01*
X53444Y109817D01*
X53224Y109905D01*
X53179Y109949D01*
X53047Y110037D01*
X52827Y110169D01*
X52606Y110346D01*
X52430Y110434D01*
X52694Y108979D01*
Y108891D01*
X52738Y108714D01*
X52783Y108406D01*
X52871Y108053D01*
X52959Y107215D01*
X53003Y106774D01*
X53047Y106421D01*
Y106113D01*
X53135D01*
X53268Y106069D01*
X53444Y105980D01*
X54061Y105804D01*
X54106D01*
X54238Y105760D01*
X54458Y105716D01*
X54723Y105672D01*
X55031Y105628D01*
X55384Y105583D01*
X56134Y105539D01*
X56663Y105495D01*
Y105539D01*
Y105583D01*
X56619Y105628D01*
Y105716D01*
X56663Y105804D01*
X56707Y105848D01*
X56751Y105892D01*
X56839Y105936D01*
X56972D01*
X57192Y105760D01*
X57236Y105716D01*
X57413Y105539D01*
X57633Y105319D01*
X57942Y105098D01*
X57986D01*
X58030Y105054D01*
X58250Y104922D01*
X58559Y104746D01*
X58868Y104569D01*
X58912Y104525D01*
X59088Y104481D01*
X59397Y104349D01*
X59749Y104261D01*
X60191Y104084D01*
X60676Y103996D01*
X61205Y103864D01*
X61778Y103776D01*
X62616Y103687D01*
X63101D01*
X63145Y103732D01*
X63233Y103776D01*
X63453Y103952D01*
X63498Y103996D01*
X63542Y104084D01*
X63586Y104217D01*
X63630Y104393D01*
Y104437D01*
X63674Y104569D01*
X63718Y104746D01*
X63762Y105010D01*
Y105319D01*
X63806Y105672D01*
X63850Y106421D01*
Y106465D01*
Y106598D01*
Y106818D01*
Y107083D01*
Y107436D01*
Y107788D01*
Y108538D01*
Y108582D01*
Y108626D01*
X63806Y108891D01*
X63718Y109332D01*
X63586Y109861D01*
X63409Y110478D01*
X63189Y111139D01*
X62924Y111801D01*
X62616Y112506D01*
X62351Y112947D01*
X62307Y112727D01*
Y112683D01*
X62263Y112594D01*
X62042Y112286D01*
X61910Y112109D01*
X61690Y111933D01*
X61469Y111801D01*
X61161Y111669D01*
X61072D01*
X60940Y111624D01*
X60631D01*
X60323Y111669D01*
X60279D01*
X60235Y111713D01*
X59970Y111801D01*
X59661Y111977D01*
X59309Y112242D01*
Y112286D01*
X59220Y112330D01*
X59088Y112550D01*
X58868Y112859D01*
X58691Y113256D01*
Y113300D01*
Y113344D01*
X58647Y113565D01*
Y113873D01*
X58691Y114226D01*
Y114270D01*
X58735Y114358D01*
X58780Y114491D01*
X58868Y114667D01*
X59000Y114843D01*
X59176Y115020D01*
X59441Y115196D01*
X59705Y115328D01*
X59794Y115417D01*
X59573Y115593D01*
X59088Y115769D01*
X59000Y115813D01*
X58824Y115857D01*
X58515Y115946D01*
X58118Y116034D01*
X57809Y116078D01*
D02*
G37*
G36*
X52694Y115417D02*
X52606Y115152D01*
Y115108D01*
X52562Y115020D01*
X52518Y114888D01*
X52474Y114711D01*
X52298Y114314D01*
X52077Y113873D01*
X52033Y113829D01*
X51945Y113697D01*
X51768Y113520D01*
X51592Y113344D01*
X51548Y113300D01*
X51416Y113212D01*
X51239Y113124D01*
X51063Y112991D01*
X50931Y112947D01*
X51239Y112506D01*
X51283Y112462D01*
X51328Y112418D01*
X51372Y112374D01*
X51460D01*
X51768Y112418D01*
X51813D01*
X51945Y112506D01*
X52165Y112594D01*
X52386Y112771D01*
X52650Y112991D01*
X52915Y113256D01*
X53179Y113609D01*
X53356Y114050D01*
Y114094D01*
X53400Y114138D01*
X53444Y114358D01*
X53488Y114667D01*
X53532Y114976D01*
Y115152D01*
X52694Y115417D01*
D02*
G37*
G36*
X60411Y114976D02*
X60146Y114931D01*
X59838Y114843D01*
X59794Y114799D01*
X59617Y114711D01*
X59441Y114579D01*
X59264Y114314D01*
X59220Y114270D01*
X59176Y114094D01*
Y113829D01*
Y113476D01*
Y113432D01*
X59220Y113300D01*
X59309Y113124D01*
X59441Y112903D01*
X59617Y112683D01*
X59882Y112506D01*
X60146Y112330D01*
X60499Y112198D01*
X60543D01*
X60676Y112154D01*
X60852D01*
X61028Y112198D01*
X61072D01*
X61116Y112242D01*
X61337Y112374D01*
X61602Y112594D01*
X61778Y112991D01*
Y113035D01*
X61822Y113080D01*
X61866Y113256D01*
Y113432D01*
Y113476D01*
Y113653D01*
X61822Y113785D01*
X61778Y113961D01*
Y114006D01*
X61734Y114094D01*
X61513Y114358D01*
X61205Y114667D01*
X60984Y114843D01*
X60720Y114931D01*
X60631D01*
X60411Y114976D01*
D02*
G37*
G36*
X59705Y123883D02*
X58118D01*
X57765Y123839D01*
X57677D01*
X57457Y123794D01*
X57104Y123750D01*
X56663Y123662D01*
X56134Y123530D01*
X55605Y123398D01*
X54987Y123177D01*
X54414Y122957D01*
X54370D01*
X54282Y122913D01*
X54106Y122824D01*
X53929Y122692D01*
X53664Y122560D01*
X53356Y122383D01*
X52650Y121943D01*
X51901Y121325D01*
X51063Y120620D01*
X50269Y119782D01*
X49520Y118812D01*
X49475Y118724D01*
X49299Y118459D01*
X49079Y118062D01*
X48814Y117489D01*
X48506Y116828D01*
X48241Y116078D01*
X47976Y115284D01*
X47800Y114402D01*
Y114314D01*
X47756Y114138D01*
X47712Y113873D01*
X47668Y113609D01*
Y112639D01*
Y112594D01*
Y112550D01*
Y112242D01*
Y111933D01*
Y111580D01*
Y111492D01*
X47712Y111316D01*
X47756Y111007D01*
X47800Y110654D01*
Y110610D01*
X47844Y110522D01*
Y110390D01*
X47888Y110213D01*
X48020Y109728D01*
X48241Y109111D01*
X48506Y108362D01*
X48858Y107568D01*
X49299Y106774D01*
X49828Y105936D01*
X49872Y105892D01*
X49917Y105848D01*
X50137Y105539D01*
X50490Y105143D01*
X50887Y104702D01*
X50931Y104658D01*
X50975Y104614D01*
X51283Y104349D01*
X51680Y103996D01*
X52121Y103643D01*
X52430Y103467D01*
X52562Y104305D01*
Y105098D01*
Y105143D01*
Y105231D01*
Y105363D01*
Y105583D01*
X52518Y106069D01*
X52474Y106642D01*
Y106686D01*
Y106774D01*
X52430Y106951D01*
Y107215D01*
X52386Y107480D01*
X52342Y107832D01*
X52209Y108582D01*
X51945Y110081D01*
Y110125D01*
Y110169D01*
X51901Y110434D01*
X51857Y110698D01*
Y110875D01*
X51813Y110963D01*
X51768Y111051D01*
X51636Y111184D01*
X51592Y111228D01*
X51504Y111360D01*
X51372Y111536D01*
X51151Y111757D01*
X50931Y112065D01*
X50710Y112374D01*
X50225Y113080D01*
X50181Y113124D01*
X50137Y113256D01*
X50005Y113432D01*
X49872Y113697D01*
X49608Y114270D01*
X49387Y114843D01*
Y114888D01*
Y114931D01*
X49343Y115108D01*
Y115372D01*
X49387Y115593D01*
X49431Y115637D01*
X49520Y115769D01*
X49740Y115902D01*
X50093Y116034D01*
X50137D01*
X50225Y116078D01*
X50402D01*
X50622Y116122D01*
X51195D01*
X51945Y116078D01*
X51989D01*
X52121Y116034D01*
X52342D01*
X52606Y115990D01*
X52915Y115902D01*
X53268Y115813D01*
X53973Y115593D01*
X54238Y115461D01*
X54414Y115593D01*
X54458Y115637D01*
X54502Y115681D01*
X54635Y115769D01*
X54811Y115902D01*
X55296Y116166D01*
X55913Y116387D01*
X56090Y116475D01*
X56266Y117004D01*
Y117048D01*
X56354Y117136D01*
X56442Y117268D01*
X56531Y117445D01*
X56839Y117886D01*
X57192Y118371D01*
X57236Y118415D01*
X57280Y118459D01*
X57545Y118724D01*
X57942Y119032D01*
X58383Y119297D01*
X58427Y119341D01*
X58603Y119385D01*
X58780Y119429D01*
X59044D01*
X59220Y119341D01*
X59397Y119209D01*
X59661Y118988D01*
X59705Y118944D01*
X59882Y118724D01*
X60058Y118459D01*
X60235Y118062D01*
X60279Y118018D01*
X60323Y117886D01*
X60411Y117710D01*
X60499Y117445D01*
X60587Y117092D01*
X60631Y116739D01*
X60720Y116299D01*
Y115857D01*
X60808Y115461D01*
X60940Y115417D01*
X60984D01*
X61116Y115372D01*
X61293Y115240D01*
X61513Y115108D01*
X61778Y114931D01*
X61998Y114667D01*
X62219Y114358D01*
X62351Y113961D01*
X62395Y113873D01*
X62483Y113741D01*
X62616Y113565D01*
X62660Y113476D01*
X62792Y113256D01*
X63012Y112859D01*
X63233Y112374D01*
X63498Y111801D01*
X63762Y111095D01*
X63983Y110346D01*
X64159Y109552D01*
Y109508D01*
Y109464D01*
X64203Y109332D01*
Y109155D01*
X64291Y108714D01*
X64335Y108141D01*
X64379Y107436D01*
X64423Y106642D01*
X64379Y105804D01*
X64291Y104878D01*
Y104834D01*
Y104746D01*
X64203Y104481D01*
X64115Y104172D01*
X64027Y103864D01*
X63983Y103820D01*
X63938Y103687D01*
X63806Y103511D01*
X63586Y103335D01*
X63542Y103291D01*
X63321Y103246D01*
X63012Y103158D01*
X62527Y103114D01*
X62439D01*
X62219Y103158D01*
X61866D01*
X61425Y103246D01*
X60896Y103335D01*
X60323Y103467D01*
X59749Y103643D01*
X59176Y103864D01*
X58118Y104393D01*
X58074Y104437D01*
X58030D01*
X57898Y103864D01*
Y103820D01*
X57853Y103643D01*
X57809Y103379D01*
X57765Y103070D01*
X57677Y102365D01*
X57633Y102012D01*
X57589Y101703D01*
Y101483D01*
X58250Y101395D01*
X59441D01*
X59794Y101439D01*
X60102Y101483D01*
X60235D01*
X60455Y101527D01*
X60676Y101571D01*
X60984Y101615D01*
X61337Y101703D01*
X62131Y101924D01*
X63101Y102232D01*
X64115Y102673D01*
X65129Y103291D01*
X66143Y103996D01*
X66187Y104040D01*
X66320Y104172D01*
X66496Y104393D01*
X66805Y104658D01*
X66893Y104746D01*
X67069Y104922D01*
X67290Y105143D01*
X67510Y105407D01*
X67554Y105451D01*
X67642Y105539D01*
X67731Y105716D01*
X67907Y105980D01*
X68127Y106289D01*
X68348Y106642D01*
X68568Y107039D01*
X68833Y107524D01*
X69054Y108009D01*
X69274Y108582D01*
X69715Y109817D01*
X69891Y110478D01*
X69979Y111184D01*
X70068Y111889D01*
X70112Y112639D01*
Y112683D01*
Y112771D01*
Y112903D01*
Y113124D01*
X70068Y113388D01*
X70023Y113653D01*
X69935Y114358D01*
X69803Y115152D01*
X69538Y116034D01*
X69230Y116960D01*
X68789Y117886D01*
Y117930D01*
X68745Y118018D01*
X68657Y118106D01*
X68568Y118283D01*
X68260Y118768D01*
X67863Y119341D01*
X67334Y119958D01*
X66672Y120664D01*
X65923Y121325D01*
X65085Y121987D01*
X65041D01*
X64997Y122075D01*
X64865Y122119D01*
X64688Y122251D01*
X64203Y122472D01*
X63586Y122780D01*
X62836Y123133D01*
X61998Y123442D01*
X61028Y123662D01*
X60014Y123839D01*
X59926D01*
X59705Y123883D01*
D02*
G37*
G36*
X53003Y103952D02*
X52915Y103114D01*
X53929Y102761D01*
X53973D01*
X54061Y102717D01*
X54194Y102673D01*
X54414Y102629D01*
X54899Y102541D01*
X55472Y102453D01*
X55957D01*
X56531Y102497D01*
X56663D01*
X56883Y102585D01*
X57148Y102629D01*
X57280Y103511D01*
X55517D01*
X54723Y103555D01*
X54679D01*
X54546Y103599D01*
X54370D01*
X54149Y103643D01*
X53664Y103732D01*
X53179Y103864D01*
X53003Y103952D01*
D02*
G37*
G36*
X52386Y100910D02*
X52077Y100028D01*
X52430Y99851D01*
X53003Y99543D01*
X53047D01*
X53135Y99499D01*
X53312Y99410D01*
X53576Y99366D01*
X53885Y99278D01*
X54194Y99190D01*
X54591Y99102D01*
X55031Y99058D01*
X55605D01*
X56134Y99102D01*
X56354D01*
X56531Y99146D01*
X56795Y99190D01*
X56839D01*
X56972Y99234D01*
X57104Y99322D01*
X57192Y99366D01*
X57104Y100424D01*
X56839Y100336D01*
X56795D01*
X56619Y100292D01*
X56354Y100248D01*
X56002Y100204D01*
X55075D01*
X54546Y100248D01*
X53973Y100336D01*
X53929D01*
X53841Y100380D01*
X53709Y100424D01*
X53532Y100469D01*
X53091Y100645D01*
X52562Y100865D01*
X52386Y100910D01*
D02*
G37*
G36*
X58250Y96236D02*
X58162Y96191D01*
X58030Y96147D01*
X57986D01*
X57898Y96059D01*
X57633Y95883D01*
X57545Y95795D01*
X57457Y95662D01*
X57368Y95530D01*
X57236Y95309D01*
X57104Y95045D01*
X56972Y94692D01*
X56883Y94340D01*
X56839Y94295D01*
X56795Y94119D01*
Y94031D01*
Y93987D01*
X56839Y94031D01*
X57148Y94075D01*
X57236D01*
X57413Y94119D01*
X57721Y94163D01*
X58074Y94207D01*
X58162D01*
X58383Y94251D01*
X58691D01*
X59000Y94207D01*
X59397D01*
X58338Y96191D01*
X58250Y96236D01*
D02*
G37*
G36*
X63542Y95221D02*
X62924D01*
X62307Y95133D01*
X61602Y95001D01*
X61513D01*
X61249Y94913D01*
X60940Y94824D01*
X60631Y94692D01*
X60587Y94648D01*
X60411Y94560D01*
X60191Y94428D01*
X60014Y94295D01*
X59970Y94251D01*
Y94207D01*
Y94119D01*
X60014Y94075D01*
X60102D01*
X60235Y94031D01*
X60279D01*
X60411Y93987D01*
X60587Y93898D01*
X60852Y93766D01*
X61205Y93590D01*
X61646Y93325D01*
X62131Y93061D01*
X62660Y92664D01*
X62704D01*
X62792Y92708D01*
X62836D01*
X62880Y92752D01*
X63101Y92840D01*
X63409D01*
X63586Y92752D01*
X63762Y92664D01*
X63806Y92620D01*
X63850Y92532D01*
X63938Y92355D01*
X64071Y92091D01*
X64203Y91738D01*
X64247D01*
X64335Y91782D01*
X64468Y91826D01*
X64600Y91870D01*
X64688Y91914D01*
X64865Y91958D01*
X65129Y92091D01*
X65438Y92267D01*
X65482D01*
X65526Y92311D01*
X65746Y92443D01*
X66055Y92664D01*
X66452Y92928D01*
X66672Y93105D01*
X66320Y93458D01*
X66276Y93502D01*
X66143Y93634D01*
X66011Y93766D01*
X65923Y93898D01*
Y93943D01*
X65879Y94031D01*
X65835Y94295D01*
Y94472D01*
X65526Y94648D01*
X65482D01*
X65438Y94692D01*
X65217Y94824D01*
X64909Y94957D01*
X64556Y95045D01*
X64468D01*
X64291Y95089D01*
X63983Y95177D01*
X63542Y95221D01*
D02*
G37*
G36*
X35454D02*
X35321D01*
X35145Y95177D01*
X34924D01*
X34395Y95001D01*
X34087Y94869D01*
X33822Y94692D01*
X33778Y94648D01*
X33734Y94604D01*
X33602Y94472D01*
X33469Y94295D01*
X33161Y93854D01*
X32896Y93237D01*
X32852Y92972D01*
Y92179D01*
X32896Y91914D01*
Y91870D01*
X32940Y91826D01*
X33072Y91517D01*
X33293Y91121D01*
X33646Y90724D01*
X33690D01*
X33734Y90635D01*
X33998Y90459D01*
X34439Y90195D01*
X34969Y90018D01*
X35894D01*
X36071Y90062D01*
X36115D01*
X36203Y90106D01*
X36335Y90150D01*
X36512Y90195D01*
X36909Y90415D01*
X37306Y90724D01*
X37350Y90768D01*
X37438Y90856D01*
X37526Y91032D01*
X37702Y91253D01*
X37835Y91517D01*
X37923Y91826D01*
X38011Y92223D01*
X38055Y92620D01*
Y92664D01*
Y92752D01*
Y92884D01*
X38011Y93105D01*
X37879Y93546D01*
X37614Y94031D01*
X37570Y94075D01*
X37482Y94207D01*
X37306Y94428D01*
X37041Y94648D01*
X36732Y94824D01*
X36379Y95045D01*
X35939Y95177D01*
X35454Y95221D01*
D02*
G37*
G36*
X51328Y98043D02*
X51283Y97999D01*
X51239Y97823D01*
X51151Y97735D01*
X51063Y97558D01*
X50269Y95883D01*
X49387Y94163D01*
X49343Y94075D01*
X49211Y93854D01*
X49035Y93502D01*
X48814Y93061D01*
X48373Y92179D01*
X48153Y91782D01*
X48020Y91429D01*
X47315Y89401D01*
Y89357D01*
X47271Y89269D01*
X47227Y89136D01*
X47183Y88960D01*
X47139Y88740D01*
X47050Y88431D01*
X46918Y87769D01*
X46830Y87020D01*
X46742Y86138D01*
X46786Y85212D01*
X46874Y84242D01*
Y84154D01*
X46962Y83889D01*
X47050Y83492D01*
X47183Y82963D01*
X47359Y82302D01*
X47579Y81596D01*
X47888Y80847D01*
X48285Y80009D01*
X48594Y79391D01*
X48858Y79039D01*
X50005Y77936D01*
X50049Y77892D01*
X50225Y77716D01*
X50534Y77495D01*
X50887Y77187D01*
X51328Y76878D01*
X51857Y76525D01*
X52386Y76173D01*
X53003Y75864D01*
X53047D01*
X53091Y75820D01*
X53356Y75732D01*
X53753Y75555D01*
X54282Y75335D01*
X54899Y75158D01*
X55605Y74938D01*
X56354Y74762D01*
X57148Y74629D01*
X57457D01*
X57765Y74585D01*
X58559D01*
X58735Y74629D01*
X58868D01*
Y74673D01*
X58824Y74894D01*
Y74938D01*
X58780Y74982D01*
X58691Y75247D01*
X58647Y75643D01*
Y76173D01*
X58691Y76746D01*
X58824Y77407D01*
Y77495D01*
X58868Y77672D01*
X58956Y77980D01*
X59088Y78377D01*
X59220Y78818D01*
X59353Y79303D01*
X59749Y80273D01*
X59794Y80317D01*
X59838Y80494D01*
X59970Y80714D01*
X60102Y81023D01*
X60499Y81684D01*
X60720Y81993D01*
X60940Y82302D01*
X61028Y82522D01*
Y83007D01*
Y83051D01*
Y83095D01*
Y83316D01*
Y83536D01*
X60984Y83757D01*
Y83801D01*
X60940Y83889D01*
X60896Y84066D01*
X60808Y84286D01*
X60587Y84771D01*
X60191Y85300D01*
X59882Y85609D01*
X59838Y85653D01*
X59661Y85741D01*
X59397Y85829D01*
X59088Y85962D01*
X58691Y86094D01*
X58294Y86182D01*
X57853D01*
X57413Y86138D01*
X56883Y86050D01*
X56442Y85785D01*
X56398Y85741D01*
X56266Y85653D01*
X56046Y85477D01*
X55781Y85256D01*
X55472Y84947D01*
X55164Y84506D01*
X54811Y84021D01*
X54502Y83448D01*
X54458Y83404D01*
X54370Y83316D01*
X54282Y83184D01*
X54238Y83139D01*
X54194D01*
X54061Y83095D01*
X53929Y83139D01*
X53841Y83316D01*
X53885Y83404D01*
X53929Y83536D01*
X54061Y83801D01*
Y83845D01*
X54149Y83933D01*
X54238Y84110D01*
X54370Y84330D01*
X54679Y84815D01*
X55031Y85300D01*
X55208Y85477D01*
X55164Y85785D01*
Y85829D01*
X55120Y86006D01*
Y86226D01*
X55075Y86535D01*
Y86932D01*
Y87417D01*
Y87946D01*
X55120Y88519D01*
X55296Y89710D01*
Y89754D01*
X55252D01*
X55164Y89798D01*
X55120Y89842D01*
X54987Y89930D01*
X54811Y90062D01*
X54679Y90195D01*
Y90239D01*
Y90371D01*
X54723Y90459D01*
X54811Y90503D01*
X54899Y90547D01*
X54987D01*
X55031Y90503D01*
X55164Y90415D01*
X55208D01*
X55296Y90327D01*
X55472Y90239D01*
X55693Y90150D01*
X56002Y90018D01*
X56354Y89930D01*
X56707Y89842D01*
X57148Y89798D01*
X57501D01*
X57765Y89842D01*
X58030D01*
X58383Y89930D01*
X59132Y90062D01*
X59176D01*
X59309Y90106D01*
X59529Y90150D01*
X59749Y90239D01*
X60323Y90415D01*
X60587Y90547D01*
X60852Y90680D01*
X60940Y90724D01*
X61116Y90856D01*
X61425Y91032D01*
X61778Y91297D01*
X61822D01*
X61866Y91385D01*
X62042Y91517D01*
X62263Y91694D01*
X62307Y91782D01*
X62351Y91870D01*
X62395Y91914D01*
Y92002D01*
X62307Y92179D01*
X62219Y92311D01*
X62087Y92399D01*
X61998Y92487D01*
X61778Y92620D01*
X61469Y92884D01*
X61072Y93105D01*
X61028D01*
X60984Y93149D01*
X60764Y93281D01*
X60455Y93413D01*
X60146Y93502D01*
X60058Y93546D01*
X59838Y93590D01*
X59485Y93634D01*
X59000Y93678D01*
X58118D01*
X57633Y93634D01*
X57545D01*
X57368Y93590D01*
X57060Y93502D01*
X56663Y93369D01*
X56266Y93193D01*
X55825Y92972D01*
X55428Y92708D01*
X55031Y92355D01*
Y92311D01*
X54943Y92267D01*
X54899Y92223D01*
X54811Y92179D01*
X54767D01*
X54679Y92223D01*
X54591Y92355D01*
X54546Y92532D01*
X54591Y92620D01*
X54679Y92708D01*
X54811Y92840D01*
X55164Y93237D01*
X55208Y93281D01*
X55384Y93369D01*
X55649Y93502D01*
X55957Y93634D01*
X56222Y93766D01*
Y93987D01*
Y94031D01*
X56266Y94119D01*
X56310Y94251D01*
X56354Y94472D01*
X56487Y94913D01*
X56707Y95398D01*
Y95442D01*
X56751Y95530D01*
X56927Y95795D01*
X57192Y96103D01*
X57501Y96456D01*
X58074Y96677D01*
Y96765D01*
X57809Y97382D01*
X57721D01*
X57589Y97338D01*
X57545D01*
X57457Y97294D01*
X57236Y97206D01*
X56972Y97117D01*
X56090Y96985D01*
X55869D01*
X55605Y96941D01*
X54194D01*
X54017Y96985D01*
X53753Y97029D01*
X53356Y97117D01*
X52959Y97250D01*
X52474Y97426D01*
X51989Y97647D01*
X51548Y97911D01*
X51328Y98043D01*
D02*
G37*
G36*
X67069Y92708D02*
X66761Y92532D01*
X66672Y92443D01*
X66452Y92267D01*
X66099Y92047D01*
X65702Y91782D01*
X65658D01*
X65614Y91738D01*
X65349Y91606D01*
X64997Y91429D01*
X64644Y91297D01*
X64600D01*
X64512Y91253D01*
X64423Y91209D01*
X64379Y91165D01*
X64512Y90812D01*
X64556Y90768D01*
X64600Y90591D01*
X64688Y90327D01*
X64820Y90062D01*
X64953Y89798D01*
X65085Y89577D01*
X65261Y89445D01*
X65394Y89401D01*
X65570Y89445D01*
X65614D01*
X65658Y89489D01*
X65923Y89665D01*
X66099Y89842D01*
X66320Y90018D01*
X66584Y90283D01*
X66849Y90547D01*
X66893Y90591D01*
X66981Y90680D01*
X67113Y90856D01*
X67290Y91032D01*
X67554Y91429D01*
X67642Y91606D01*
X67687Y91738D01*
Y91782D01*
Y91870D01*
X67598Y92002D01*
X67510Y92179D01*
X67069Y92708D01*
D02*
G37*
G36*
X61293Y90327D02*
X61161Y90239D01*
X61116D01*
X61072Y90195D01*
X60940Y90150D01*
X60808Y90062D01*
X60367Y89886D01*
X59794Y89710D01*
X59749D01*
X59705Y89665D01*
X59441Y89621D01*
X59000Y89533D01*
X58515Y89445D01*
X57898Y89357D01*
X56663D01*
X56046Y89445D01*
X55781Y89489D01*
X55605Y88343D01*
Y88254D01*
Y88034D01*
Y87681D01*
Y87196D01*
Y87152D01*
Y87108D01*
Y86843D01*
Y86491D01*
Y86226D01*
X55649Y85917D01*
X55781Y85962D01*
X55825Y86006D01*
X56002Y86138D01*
X56222Y86270D01*
X56487Y86403D01*
X56575Y86447D01*
X56751Y86491D01*
X57016Y86623D01*
X57324Y86711D01*
X58691D01*
X58780Y86667D01*
X58956Y86623D01*
X59132Y86579D01*
X59617Y86358D01*
X60146Y86006D01*
X60191D01*
X60279Y85917D01*
X60411Y85785D01*
X60543Y85653D01*
X60720Y85432D01*
X60940Y85168D01*
X61116Y84859D01*
X61293Y84506D01*
X61425Y84242D01*
X61734Y84683D01*
X61778Y84727D01*
X61822Y84815D01*
X61910Y85035D01*
X61998Y85256D01*
X62087Y85565D01*
X62175Y85917D01*
X62219Y86358D01*
Y86799D01*
Y86843D01*
Y86888D01*
Y87152D01*
Y87417D01*
X62175Y87593D01*
X62087Y87769D01*
Y87814D01*
Y87902D01*
Y88034D01*
X62042Y88254D01*
X61778Y89004D01*
X61469Y89886D01*
X61293Y90327D01*
D02*
G37*
G36*
X62836Y90856D02*
X62175Y90812D01*
X62087D01*
X61910Y90724D01*
X61778Y90680D01*
Y90591D01*
X61822Y90459D01*
X61910Y90195D01*
X62307Y89269D01*
X62616Y88122D01*
X62836Y88254D01*
X62924Y88299D01*
X63101Y88343D01*
X63365Y88387D01*
X63630Y88431D01*
X63674D01*
X63806Y88475D01*
X63850Y88563D01*
Y88607D01*
X63762Y88695D01*
Y88740D01*
X63674Y88828D01*
X63586Y88960D01*
X63498Y89136D01*
X63365Y89401D01*
X63233Y89754D01*
X63057Y90150D01*
X62924Y90635D01*
X62836Y90856D01*
D02*
G37*
G36*
X67113Y88563D02*
X67069D01*
X67025Y88519D01*
X66893Y88431D01*
X66849Y88387D01*
X66672Y88254D01*
X66408Y88122D01*
X66187Y88034D01*
X66011Y87946D01*
X66187Y87814D01*
X66231D01*
X66320Y87725D01*
X66452Y87593D01*
X66628Y87417D01*
X66672Y87373D01*
X66805Y87240D01*
X66981Y87064D01*
X67113Y86843D01*
X67201Y86711D01*
X67510Y86843D01*
X67554D01*
X67687Y86888D01*
X67775D01*
X67819Y86932D01*
Y86976D01*
Y87108D01*
X67731Y87284D01*
X67113Y88563D01*
D02*
G37*
G36*
X37482Y88122D02*
X37350D01*
X37217Y88034D01*
X37041Y87946D01*
X36820Y87814D01*
X36556Y87593D01*
Y87505D01*
X36512Y87373D01*
X36556Y87240D01*
X36688Y87020D01*
X36820Y86888D01*
X36953Y86667D01*
X37129Y86403D01*
X37438Y86843D01*
X37482Y86888D01*
X37658Y87020D01*
X37879Y87196D01*
X38187Y87329D01*
Y87417D01*
X37482Y88122D01*
D02*
G37*
G36*
X64512Y87946D02*
X63806D01*
X63365Y87902D01*
X62924Y87725D01*
X62880D01*
X62792Y87637D01*
X62704Y87593D01*
Y87505D01*
Y87461D01*
Y87329D01*
X62748Y87152D01*
Y86932D01*
Y86314D01*
X62660Y85653D01*
Y85344D01*
X64512Y85917D01*
X64556Y85962D01*
X64688Y86006D01*
X64909Y86050D01*
X65217Y86138D01*
X66628Y86579D01*
Y86623D01*
X66584Y86667D01*
X66496Y86799D01*
X66187Y87152D01*
X66099Y87240D01*
X65879Y87417D01*
X65482Y87637D01*
X64997Y87814D01*
X64909Y87858D01*
X64732Y87902D01*
X64512Y87946D01*
D02*
G37*
G36*
X77343Y87902D02*
X75932D01*
X75579Y87858D01*
X75139D01*
X74653Y87814D01*
X74124Y87769D01*
X73551Y87681D01*
X73463D01*
X73286Y87637D01*
X72978Y87593D01*
X72537Y87505D01*
X72052Y87417D01*
X71435Y87284D01*
X70817Y87152D01*
X70112Y86976D01*
X69583Y86843D01*
X69715Y86447D01*
Y86403D01*
X69759Y86358D01*
X69803Y86094D01*
X69891Y85741D01*
X69979Y85344D01*
X70023Y85256D01*
X70068Y85035D01*
X70112Y84771D01*
Y84506D01*
Y84462D01*
Y84374D01*
Y84242D01*
Y84110D01*
X70068Y84066D01*
X69979Y83977D01*
X69803Y83845D01*
X69627Y83757D01*
X69583D01*
X69450Y83713D01*
X69274Y83757D01*
X69009Y83801D01*
X68965Y83845D01*
X68833Y83933D01*
X68701Y84110D01*
X68612Y84374D01*
Y84418D01*
Y84462D01*
X68568Y84683D01*
X68524Y84991D01*
X68436Y85344D01*
X68039Y86403D01*
X67598Y86270D01*
X62792Y84859D01*
X62704D01*
X62572Y84771D01*
X62439Y84727D01*
X62351Y84683D01*
X62175Y84374D01*
X62131Y84330D01*
X62042Y84198D01*
X61954Y84021D01*
X61778Y83845D01*
X61557Y83669D01*
X61602Y82919D01*
X61778Y83051D01*
X61822D01*
X61910Y83095D01*
X62042Y83184D01*
X62219Y83228D01*
X62439D01*
X62616Y83184D01*
X62836Y83139D01*
X63057Y82963D01*
X63101Y82919D01*
X63145Y82875D01*
X63277Y82698D01*
X63409Y82522D01*
X63542Y82258D01*
X63674Y81905D01*
X63850Y81464D01*
X63983Y80935D01*
Y80891D01*
X64027Y80670D01*
X64115Y80361D01*
X64203Y79921D01*
X64291Y79436D01*
X64379Y78818D01*
X64468Y78113D01*
X64512Y77319D01*
Y77231D01*
Y77010D01*
X64556Y76702D01*
Y76305D01*
X64512Y75864D01*
X64423Y75423D01*
X64335Y74982D01*
X64159Y74585D01*
X64115Y74541D01*
X64071Y74409D01*
X63894Y74188D01*
X63718Y73968D01*
X63498Y73703D01*
X63189Y73483D01*
X62836Y73262D01*
X62395Y73130D01*
X62219D01*
X62042Y73086D01*
X61249D01*
X60984Y73130D01*
X60940D01*
X60808Y73174D01*
X60587Y73262D01*
X60367Y73351D01*
X59794Y73615D01*
X59529Y73836D01*
X59264Y74056D01*
X59176Y74144D01*
X58559Y74056D01*
X57368D01*
X57016Y74100D01*
X56927D01*
X56707Y74144D01*
X56354Y74232D01*
X55957Y74321D01*
X55869D01*
X55693Y74365D01*
X55384Y74453D01*
X54987Y74585D01*
X54502Y74717D01*
X53973Y74894D01*
X52827Y75379D01*
X52783Y75423D01*
X52562Y75511D01*
X52298Y75687D01*
X51901Y75908D01*
X51460Y76173D01*
X50975Y76481D01*
X49961Y77231D01*
X49917Y77275D01*
X49740Y77407D01*
X49520Y77628D01*
X49255Y77892D01*
X48638Y78510D01*
X48373Y78862D01*
X48153Y79171D01*
X48020Y79259D01*
X46168Y78333D01*
X46080Y78289D01*
X45860Y78157D01*
X45551Y77980D01*
X45198Y77760D01*
X44802Y77540D01*
X44449Y77275D01*
X44096Y77010D01*
X43876Y76746D01*
X43832Y76658D01*
X43743Y76437D01*
X43655Y76084D01*
X43567Y75555D01*
Y75511D01*
Y75423D01*
Y75247D01*
Y75070D01*
Y74806D01*
Y74497D01*
X43655Y73836D01*
Y73791D01*
Y73747D01*
X43699Y73615D01*
Y73439D01*
X43787Y72998D01*
X43920Y72380D01*
X44096Y71675D01*
X44317Y70881D01*
X44581Y70043D01*
X44934Y69162D01*
Y69117D01*
X44978Y69073D01*
X45022Y68941D01*
X45110Y68765D01*
X45331Y68368D01*
X45595Y67839D01*
X45904Y67266D01*
X46257Y66692D01*
X46653Y66119D01*
X47094Y65590D01*
X47183Y65502D01*
X47359Y65369D01*
X47579Y65193D01*
X47844Y65105D01*
X47888D01*
X47932Y65061D01*
X48064Y65017D01*
X48241D01*
X48726Y65105D01*
X48814D01*
X49079Y65193D01*
X49520Y65281D01*
X50093Y65458D01*
X50842Y65678D01*
X51724Y65987D01*
X52783Y66340D01*
X53973Y66825D01*
X54017D01*
X54106Y66869D01*
X54326Y66957D01*
X54546Y67089D01*
X54855Y67221D01*
X55208Y67354D01*
X55649Y67574D01*
X56090Y67751D01*
X57148Y68236D01*
X58338Y68809D01*
X59617Y69426D01*
X60984Y70087D01*
X61028Y70132D01*
X61205Y70220D01*
X61425Y70308D01*
X61778Y70528D01*
X62175Y70749D01*
X62660Y70969D01*
X63189Y71278D01*
X63762Y71631D01*
X64379Y71984D01*
X65085Y72380D01*
X66496Y73218D01*
X67995Y74144D01*
X69450Y75070D01*
X69494Y75114D01*
X69627Y75202D01*
X69847Y75335D01*
X70112Y75511D01*
X70465Y75776D01*
X70861Y76040D01*
X71302Y76349D01*
X71831Y76702D01*
X72890Y77495D01*
X74124Y78377D01*
X75315Y79347D01*
X76550Y80317D01*
X76594Y80361D01*
X76682Y80450D01*
X76858Y80582D01*
X77035Y80758D01*
X77520Y81199D01*
X77961Y81640D01*
X78005Y81684D01*
X78049Y81728D01*
X78313Y82037D01*
X78666Y82390D01*
X79019Y82831D01*
Y82875D01*
X79063Y82919D01*
X79239Y83139D01*
X79504Y83492D01*
X79768Y83977D01*
X80033Y84506D01*
X80297Y85080D01*
X80474Y85653D01*
X80518Y86226D01*
Y86314D01*
X80474Y86491D01*
X80430Y86711D01*
X80342Y86888D01*
X80297Y86932D01*
X80121Y87108D01*
X80033Y87196D01*
X79945Y87240D01*
X79768Y87329D01*
X79592Y87417D01*
X79328Y87549D01*
X79063Y87637D01*
X78710Y87725D01*
X78666D01*
X78534Y87769D01*
X78357Y87814D01*
X78093D01*
X77740Y87858D01*
X77343Y87902D01*
D02*
G37*
G36*
X39995Y85917D02*
X39863D01*
X39643Y85829D01*
X39422Y85741D01*
X39378D01*
X39334Y85697D01*
X39069Y85477D01*
X39025Y85432D01*
X38849Y85256D01*
X38716Y84947D01*
X38628Y84595D01*
X38584Y84551D01*
X38628Y84506D01*
X38672Y84418D01*
X39422Y83624D01*
X39687Y84154D01*
Y84198D01*
X39775Y84286D01*
X39819Y84418D01*
X39951Y84595D01*
X40304Y84991D01*
X40745Y85344D01*
X40833Y85432D01*
X39995Y85917D01*
D02*
G37*
G36*
X46301Y84595D02*
X46257D01*
X45992Y84506D01*
X45948D01*
X45816Y84462D01*
X45639Y84418D01*
X45419Y84374D01*
X44846Y84286D01*
X43302D01*
X43214Y84242D01*
X43082Y84198D01*
X42906Y84154D01*
X42509Y83933D01*
X42156Y83669D01*
X42112Y83624D01*
X42068Y83536D01*
X41935Y83404D01*
X41803Y83184D01*
Y83139D01*
X41759Y83007D01*
X41715Y82787D01*
X41671Y82522D01*
Y81861D01*
X42288Y81552D01*
X42332D01*
X42376Y81508D01*
X42509Y81420D01*
X42685Y81332D01*
X43126Y81155D01*
X43699Y80891D01*
X44405Y80582D01*
X45243Y80317D01*
X46124Y80053D01*
X47094Y79832D01*
X47712Y79700D01*
X47800D01*
Y79744D01*
X47756Y79832D01*
X47668Y79965D01*
Y80009D01*
X47624Y80097D01*
X47535Y80273D01*
X47447Y80494D01*
X47227Y81023D01*
X46962Y81684D01*
Y81728D01*
X46918Y81861D01*
X46874Y82037D01*
X46786Y82258D01*
X46609Y82831D01*
X46477Y83448D01*
X46301Y84551D01*
Y84595D01*
D02*
G37*
G36*
X62616Y82698D02*
X62351D01*
X62175Y82654D01*
X61998Y82566D01*
X61778Y82390D01*
X61513Y82169D01*
X61469Y82125D01*
X61381Y82037D01*
X61293Y81905D01*
X61116Y81684D01*
X60940Y81420D01*
X60720Y81111D01*
X60499Y80714D01*
X60279Y80273D01*
X60235Y80229D01*
X60191Y80053D01*
X60102Y79788D01*
X59970Y79436D01*
X59794Y79039D01*
X59661Y78510D01*
X59485Y77980D01*
X59309Y77363D01*
Y77319D01*
X59264Y77231D01*
Y77099D01*
X59220Y76922D01*
X59176Y76481D01*
X59132Y76040D01*
Y75996D01*
Y75864D01*
X59176Y75643D01*
X59220Y75423D01*
X59397Y74850D01*
X59529Y74585D01*
X59705Y74321D01*
X59749Y74276D01*
X59838Y74232D01*
X59970Y74144D01*
X60191Y74012D01*
X60411Y73880D01*
X60764Y73791D01*
X61116Y73703D01*
X61557Y73659D01*
X62263D01*
X62439Y73703D01*
X62616Y73791D01*
X62880Y73968D01*
X63189Y74188D01*
X63453Y74453D01*
X63718Y74850D01*
X63894Y75335D01*
Y75379D01*
X63938Y75423D01*
X63983Y75643D01*
X64027Y75952D01*
Y76349D01*
Y76393D01*
Y76437D01*
Y76569D01*
Y76702D01*
Y77143D01*
X63983Y77716D01*
Y77760D01*
Y77848D01*
X63938Y78025D01*
Y78201D01*
X63850Y78730D01*
X63762Y79391D01*
X63630Y80141D01*
X63453Y80847D01*
X63277Y81508D01*
X63012Y82081D01*
Y82125D01*
X62968Y82169D01*
X62880Y82346D01*
X62792Y82566D01*
X62616Y82698D01*
D02*
G37*
G36*
X41759Y73042D02*
X40524Y72954D01*
X40172D01*
X39775Y72910D01*
X39290Y72821D01*
X38849Y72689D01*
X38408Y72469D01*
X38099Y72248D01*
X38011Y72072D01*
X37923Y71895D01*
Y71807D01*
Y71719D01*
X37967Y71543D01*
X38011Y71322D01*
X38099Y70969D01*
X38187Y70573D01*
X38364Y70043D01*
X38408Y69955D01*
X38452Y69779D01*
X38584Y69426D01*
X38761Y69029D01*
X38937Y68500D01*
X39158Y67971D01*
X39687Y66781D01*
X39731Y66692D01*
X39819Y66516D01*
X39995Y66251D01*
X40172Y65899D01*
X40657Y65105D01*
X40877Y64708D01*
X41142Y64355D01*
Y64311D01*
X41230Y64267D01*
X41406Y64047D01*
X41671Y63782D01*
X41803Y63694D01*
X41935Y63606D01*
X41979D01*
X42156Y63562D01*
X42376D01*
X42641Y63606D01*
X42685Y63650D01*
X42861Y63738D01*
X43170Y63870D01*
X43523Y64135D01*
X43964Y64443D01*
X44449Y64928D01*
X44978Y65502D01*
X45551Y66207D01*
X45728Y66516D01*
X45551Y66825D01*
X45507Y66869D01*
X45419Y67045D01*
X45287Y67310D01*
X45110Y67618D01*
X44890Y68015D01*
X44669Y68456D01*
X44228Y69470D01*
X44184Y69558D01*
X44140Y69735D01*
X44052Y69999D01*
X43920Y70396D01*
X43743Y70793D01*
X43611Y71278D01*
X43346Y72336D01*
X43214Y72954D01*
X41759Y73042D01*
D02*
G37*
%LPD*%
G36*
X62527Y111228D02*
X62704Y111184D01*
X62880Y111051D01*
X62924Y111007D01*
X63012Y110919D01*
X63101Y110743D01*
X63145Y110522D01*
Y110478D01*
Y110346D01*
X63101Y110169D01*
X63012Y109949D01*
X62968Y109905D01*
X62792Y109773D01*
X62527Y109684D01*
X62131D01*
X61954Y109773D01*
X61822Y109905D01*
X61690Y110125D01*
Y110169D01*
X61646Y110213D01*
X61602Y110434D01*
Y110478D01*
Y110566D01*
X61646Y110654D01*
X61690Y110743D01*
Y110787D01*
X61734Y110875D01*
X61822Y111007D01*
X61910Y111139D01*
X61954Y111184D01*
X62042Y111228D01*
X62175Y111272D01*
X62395D01*
X62527Y111228D01*
D02*
G37*
G36*
X59441Y110213D02*
X59485Y110169D01*
X59573Y110125D01*
X59705Y109993D01*
X59794Y109773D01*
Y109728D01*
X59838Y109684D01*
X59882Y109552D01*
Y109376D01*
Y109332D01*
X59838Y109243D01*
X59794Y109111D01*
X59661Y108935D01*
X59617Y108891D01*
X59529Y108847D01*
X59353Y108758D01*
X59132Y108714D01*
X58868D01*
X58780Y108758D01*
X58603Y108891D01*
X58427Y109067D01*
X58383Y109243D01*
X58338Y109420D01*
Y109464D01*
Y109508D01*
X58383Y109728D01*
X58515Y109993D01*
X58735Y110213D01*
X58780D01*
X58824Y110258D01*
X59220D01*
X59441Y110213D01*
D02*
G37*
%LPC*%
G36*
X125129Y148381D02*
X125059D01*
X124974Y148367D01*
X124862Y148339D01*
X124735Y148311D01*
X124594Y148254D01*
X124467Y148184D01*
X124326Y148085D01*
X124312Y148071D01*
X124270Y148029D01*
X124199Y147958D01*
X124129Y147845D01*
X124044Y147705D01*
X123945Y147535D01*
X123861Y147310D01*
X123776Y147056D01*
Y147042D01*
X123762Y147014D01*
X123748Y146957D01*
X123734Y146873D01*
X123720Y146760D01*
X123692Y146633D01*
X123678Y146464D01*
X123649Y146281D01*
X123621Y146069D01*
X123607Y145830D01*
X123579Y145562D01*
X123565Y145266D01*
X123551Y144956D01*
X123537Y144589D01*
X123523Y144208D01*
Y143800D01*
Y143771D01*
Y143701D01*
Y143588D01*
Y143433D01*
X123537Y143236D01*
Y143024D01*
Y142799D01*
X123551Y142545D01*
X123579Y142023D01*
X123621Y141502D01*
X123649Y141248D01*
X123678Y141023D01*
X123706Y140825D01*
X123748Y140642D01*
Y140628D01*
X123762Y140600D01*
X123776Y140557D01*
X123790Y140501D01*
X123833Y140360D01*
X123903Y140191D01*
X123988Y139993D01*
X124086Y139810D01*
X124199Y139641D01*
X124326Y139514D01*
X124340Y139500D01*
X124382Y139472D01*
X124467Y139430D01*
X124566Y139373D01*
X124678Y139317D01*
X124819Y139275D01*
X124960Y139246D01*
X125129Y139232D01*
X125200D01*
X125285Y139246D01*
X125397Y139275D01*
X125524Y139303D01*
X125665Y139345D01*
X125792Y139416D01*
X125933Y139514D01*
X125947Y139528D01*
X125990Y139571D01*
X126060Y139641D01*
X126130Y139754D01*
X126229Y139895D01*
X126314Y140064D01*
X126398Y140289D01*
X126483Y140543D01*
Y140557D01*
X126497Y140586D01*
X126511Y140642D01*
X126525Y140726D01*
X126539Y140839D01*
X126567Y140966D01*
X126596Y141121D01*
X126624Y141305D01*
X126638Y141516D01*
X126666Y141756D01*
X126694Y142023D01*
X126708Y142319D01*
X126722Y142644D01*
X126737Y142996D01*
X126751Y143391D01*
Y143800D01*
Y143828D01*
Y143898D01*
Y144011D01*
Y144166D01*
Y144349D01*
X126737Y144575D01*
Y144801D01*
X126722Y145054D01*
X126694Y145576D01*
X126652Y146083D01*
X126624Y146337D01*
X126596Y146563D01*
X126553Y146760D01*
X126511Y146943D01*
Y146957D01*
X126497Y146986D01*
X126483Y147028D01*
X126469Y147084D01*
X126426Y147225D01*
X126356Y147409D01*
X126271Y147606D01*
X126173Y147789D01*
X126060Y147958D01*
X125933Y148085D01*
X125919Y148099D01*
X125877Y148127D01*
X125792Y148184D01*
X125708Y148240D01*
X125581Y148282D01*
X125440Y148339D01*
X125299Y148367D01*
X125129Y148381D01*
D02*
G37*
G36*
X99868D02*
X99797D01*
X99713Y148367D01*
X99600Y148339D01*
X99473Y148311D01*
X99332Y148254D01*
X99205Y148184D01*
X99064Y148085D01*
X99050Y148071D01*
X99008Y148029D01*
X98937Y147958D01*
X98867Y147845D01*
X98782Y147705D01*
X98684Y147535D01*
X98599Y147310D01*
X98514Y147056D01*
Y147042D01*
X98500Y147014D01*
X98486Y146957D01*
X98472Y146873D01*
X98458Y146760D01*
X98430Y146633D01*
X98416Y146464D01*
X98387Y146281D01*
X98359Y146069D01*
X98345Y145830D01*
X98317Y145562D01*
X98303Y145266D01*
X98289Y144956D01*
X98275Y144589D01*
X98261Y144208D01*
Y143800D01*
Y143771D01*
Y143701D01*
Y143588D01*
Y143433D01*
X98275Y143236D01*
Y143024D01*
Y142799D01*
X98289Y142545D01*
X98317Y142023D01*
X98359Y141502D01*
X98387Y141248D01*
X98416Y141023D01*
X98444Y140825D01*
X98486Y140642D01*
Y140628D01*
X98500Y140600D01*
X98514Y140557D01*
X98528Y140501D01*
X98571Y140360D01*
X98641Y140191D01*
X98726Y139993D01*
X98825Y139810D01*
X98937Y139641D01*
X99064Y139514D01*
X99078Y139500D01*
X99121Y139472D01*
X99205Y139430D01*
X99304Y139373D01*
X99417Y139317D01*
X99558Y139275D01*
X99699Y139246D01*
X99868Y139232D01*
X99938D01*
X100023Y139246D01*
X100136Y139275D01*
X100262Y139303D01*
X100403Y139345D01*
X100530Y139416D01*
X100671Y139514D01*
X100685Y139528D01*
X100728Y139571D01*
X100798Y139641D01*
X100869Y139754D01*
X100967Y139895D01*
X101052Y140064D01*
X101136Y140289D01*
X101221Y140543D01*
Y140557D01*
X101235Y140586D01*
X101249Y140642D01*
X101263Y140726D01*
X101277Y140839D01*
X101306Y140966D01*
X101334Y141121D01*
X101362Y141305D01*
X101376Y141516D01*
X101404Y141756D01*
X101433Y142023D01*
X101447Y142319D01*
X101461Y142644D01*
X101475Y142996D01*
X101489Y143391D01*
Y143800D01*
Y143828D01*
Y143898D01*
Y144011D01*
Y144166D01*
Y144349D01*
X101475Y144575D01*
Y144801D01*
X101461Y145054D01*
X101433Y145576D01*
X101390Y146083D01*
X101362Y146337D01*
X101334Y146563D01*
X101292Y146760D01*
X101249Y146943D01*
Y146957D01*
X101235Y146986D01*
X101221Y147028D01*
X101207Y147084D01*
X101165Y147225D01*
X101094Y147409D01*
X101010Y147606D01*
X100911Y147789D01*
X100798Y147958D01*
X100671Y148085D01*
X100657Y148099D01*
X100615Y148127D01*
X100530Y148184D01*
X100446Y148240D01*
X100319Y148282D01*
X100178Y148339D01*
X100037Y148367D01*
X99868Y148381D01*
D02*
G37*
%LPD*%
D10*
X150890Y71120D02*
G03*
X150890Y71120I-1250J0D01*
G01*
X101360Y70320D02*
G03*
X101360Y70320I-1250J0D01*
G01*
D11*
X129000Y43900D02*
G03*
X129000Y43900I-2000J0D01*
G01*
D12*
X252800Y166350D02*
X282500Y166350D01*
Y165150D02*
Y167900D01*
X252800D02*
X282500D01*
X252800Y165150D02*
X252800Y167900D01*
X280950Y135400D02*
Y165100D01*
X279750Y135400D02*
X282500D01*
Y165100D01*
X279400D02*
X282500D01*
X279400Y14859D02*
Y165100D01*
X228600D02*
X279400D01*
X228600Y14859D02*
Y165100D01*
X279400Y12700D02*
Y14859D01*
X228600Y12700D02*
X279400D01*
X228600D02*
Y14859D01*
X152140Y79870D02*
Y89870D01*
X183140Y79870D02*
Y89870D01*
X152140Y79870D02*
X183140D01*
X152140Y89870D02*
X183140D01*
X103110Y88320D02*
X133110D01*
X103110Y79320D02*
X133110D01*
Y88320D01*
X103110Y79320D02*
Y88320D01*
D13*
X97210Y88220D02*
Y92120D01*
X88210Y88220D02*
Y92120D01*
D14*
X60500Y37950D02*
X142700D01*
X60500Y12850D02*
Y37950D01*
Y12850D02*
X142700D01*
Y37950D01*
X114000Y12850D02*
Y37950D01*
M02*
